<svg viewBox="0 0 410 163" fill="none" xmlns="http://www.w3.org/2000/svg">
<g id="Group">
<g id="Group_2">
<path id="Vector" d="M405.343 84.168V61.9C405.343 61.9 405.051 57.471 396.801 55.728C388.551 53.986 345.483 43.275 345.483 43.275C345.483 43.275 301.826 10.576 287.043 6.73695C272.261 2.89795 245.278 2.15095 237.227 2.58595C237.227 2.58595 188.399 2.45395 171.37 9.05095C154.341 15.647 124.044 48.273 112.552 52.096C101.06 55.919 33.4001 70.491 23.6681 76.866C23.6681 76.866 16.1001 80.217 14.2151 86.016C12.3331 91.814 10.9861 102.767 10.9861 102.767C10.9861 102.767 7.08908 105.552 6.31508 107.446C5.54108 109.341 10.9861 130.544 10.9861 130.544C10.9861 130.544 11.7431 133.713 13.8821 133.707C14.2731 133.705 26.1211 133.705 45.2271 133.705C45.5851 129.218 46.9791 116.884 51.8781 107.802C57.9711 96.506 73.6601 96.036 81.6411 96.251C104.148 96.854 107.198 104.301 110.725 111.975C113.14 117.227 114.289 127.651 114.776 133.703C171.627 133.704 241.189 133.705 291.963 133.705C292.321 129.219 293.714 116.885 298.614 107.802C304.708 96.506 320.395 96.036 328.376 96.251C350.883 96.854 353.933 104.301 357.461 111.975C359.876 117.229 361.026 127.655 361.513 133.707C361.577 133.707 361.613 133.707 361.613 133.707L404.465 116.377C404.465 116.377 406.205 115.1 407.208 112.202C408.21 109.306 409.678 95.405 409.678 95.405L405.343 84.168Z" fill="#285DAB"/>
<g id="Group_3">
<path id="Vector_2" opacity="0.4" d="M363.437 107.278L409.679 95.405L405.342 84.168L363.437 107.278Z" fill="url(#paint0_linear_161_1633)"/>
<g id="Group_4">
<path id="Vector_3" d="M81.6415 96.2509C73.6605 96.0359 57.9715 96.5059 51.8785 107.802C46.9795 116.884 45.5855 129.218 45.2275 133.705C63.1685 133.704 87.5105 133.703 114.778 133.703C114.292 127.65 113.142 117.227 110.727 111.975C107.198 104.301 104.149 96.8539 81.6415 96.2509Z" fill="#231F20"/>
<path id="Vector_4" d="M328.376 96.2509C320.395 96.0359 304.708 96.5059 298.614 107.802C293.714 116.885 292.321 129.219 291.963 133.705C331.521 133.706 359.668 133.707 361.513 133.707C361.026 127.654 359.876 117.228 357.461 111.975C353.933 104.301 350.884 96.8539 328.376 96.2509Z" fill="#231F20"/>
</g>
<g id="Group_5">
<path id="Vector_5" d="M405.342 84.168V61.9C405.342 61.9 405.05 57.471 396.8 55.728C388.55 53.986 345.482 43.275 345.482 43.275C345.482 43.275 393.182 56.655 396.656 57.016C400.131 57.379 401.086 60.043 401.086 60.043C401.086 60.043 379.106 60.304 375.978 61.693C372.851 63.084 374.154 64.734 374.154 64.734C374.154 64.734 378.323 70.99 380.148 73.249C381.973 75.508 384.926 75.855 384.926 75.855L401.175 80.113L401.262 86.456L405.343 96.216L363.901 107.134L406.299 98.098C406.299 98.098 405.691 106.959 405.342 110.175C404.991 113.39 400.913 115.363 400.913 115.363L362.857 131.076C362.857 131.076 362.336 120.688 358.687 110.001C355.039 99.316 344.265 96.709 336.271 95.724C328.278 94.739 314.898 94.103 304.297 99.75C293.698 105.397 291.265 127.713 291.265 127.713C289.965 127.122 289.788 125.341 289.788 125.341C290.482 111.315 298.736 99.317 298.736 99.317C288.658 106.701 285.878 130.767 285.878 130.767H122.629C118.897 130.941 116.111 132.344 116.111 132.344C116.111 132.344 116.458 118.951 109.942 106.7C103.425 94.45 80.9226 94.623 76.9256 94.635C72.9296 94.646 62.2416 95.058 53.9886 102.683C45.7356 110.306 43.6496 131.376 43.6496 131.376C43.6496 131.376 28.7056 131.549 26.7726 131.376C24.8406 131.204 26.1856 129.984 26.1856 129.984C26.1856 129.984 28.1846 125.901 29.2276 122.789C30.2696 119.679 28.8296 119.186 28.8296 119.186C28.8296 119.186 19.0626 109.392 17.7136 107.771C16.3656 106.147 13.0616 107.222 13.0616 107.222C13.0616 107.222 7.41962 109.219 7.11262 108.683C6.80462 108.148 7.41962 109.219 7.11262 107.771C6.80462 106.322 11.5896 103.18 11.5896 103.18L27.4196 101.424L12.4676 101.958V97.75C12.4676 97.75 22.8846 95.579 25.5216 95.094C28.1576 94.611 34.8736 88.453 36.8726 86.216C38.8716 83.981 39.7846 81.546 39.7846 81.546C39.7416 78.025 35.2216 78.636 35.2216 78.636L18.2036 81.546C18.5746 80.742 22.4096 77.876 24.3746 76.444C24.1126 76.588 23.8756 76.729 23.6666 76.865C23.6666 76.865 16.0986 80.216 14.2136 86.015C12.3316 91.813 10.9846 102.766 10.9846 102.766C10.9846 102.766 7.08762 105.551 6.31362 107.445C5.53962 109.34 10.9846 130.543 10.9846 130.543C10.9846 130.543 11.7416 133.712 13.8806 133.706C14.2716 133.704 26.1196 133.704 45.2256 133.704C45.5836 129.217 46.9776 116.883 51.8766 107.801C57.9696 96.505 73.6586 96.035 81.6396 96.25C104.147 96.853 107.197 104.3 110.724 111.974C113.139 117.226 114.288 127.65 114.775 133.702C171.626 133.703 241.188 133.704 291.962 133.704C292.32 129.218 293.713 116.884 298.613 107.801C304.707 96.505 320.394 96.035 328.375 96.25C350.882 96.853 353.932 104.3 357.46 111.974C359.875 117.228 361.025 127.654 361.512 133.706C361.576 133.706 361.612 133.706 361.612 133.706L404.464 116.376C404.464 116.376 406.204 115.099 407.207 112.201C408.209 109.305 409.677 95.404 409.677 95.404L405.342 84.168Z" fill="#285DAB"/>
</g>
<g id="Group_6">
<path id="Vector_6" d="M81.6415 96.2509C73.6605 96.0359 57.9715 96.5059 51.8785 107.802C46.9795 116.884 45.5855 129.218 45.2275 133.705C63.1685 133.704 87.5105 133.703 114.778 133.703C114.292 127.65 113.142 117.227 110.727 111.975C107.198 104.301 104.149 96.8539 81.6415 96.2509Z" fill="#262628"/>
<path id="Vector_7" d="M328.376 96.2509C320.395 96.0359 304.708 96.5059 298.614 107.802C293.714 116.885 292.321 129.219 291.963 133.705C331.521 133.706 359.668 133.707 361.513 133.707C361.026 127.654 359.876 117.228 357.461 111.975C353.933 104.301 350.884 96.8539 328.376 96.2509Z" fill="#262628"/>
</g>
<path id="Vector_8" opacity="0.4" d="M114.457 53.297C113.908 52.965 113.477 52.508 113.135 52.002C113.016 52.034 112.897 52.07 112.78 52.106C113.126 52.636 113.564 53.125 114.125 53.498C113.528 54.38 110.113 59.086 103.85 61.357C101.061 62.369 89.2514 64.212 75.5764 66.349C58.4414 69.026 37.8244 72.245 27.3374 75.02C27.0424 75.211 26.7504 75.411 26.4624 75.617C36.5594 72.794 57.9504 69.454 75.6304 66.692C89.3234 64.552 101.148 62.706 103.968 61.683C110.972 59.144 114.479 53.593 114.514 53.537L114.607 53.388L114.457 53.297Z" fill="#2F3740"/>
<path id="Vector_9" d="M7.36264 109.932C7.36264 109.932 6.94164 110.415 7.19264 111.799C7.44364 113.182 11.5036 129.066 11.5036 129.066C11.5036 129.066 12.1766 131.335 14.6206 131.398H21.0596C21.0596 131.398 24.1876 131.236 25.4046 128.916C26.6206 126.597 27.6626 122.607 27.6626 122.607C27.6626 122.607 28.7926 120.981 26.0116 118.01C23.2316 115.04 16.5416 108.392 16.5416 108.392C16.5416 108.392 15.8646 107.307 13.1626 108.002C10.4606 108.698 7.36264 109.932 7.36264 109.932Z" fill="#414142"/>
<path id="Vector_10" d="M9.2093 111.38C9.2093 111.38 8.83629 111.811 9.05729 113.037C9.28129 114.264 12.8813 128.353 12.8813 128.353C12.8813 128.353 13.4803 130.367 15.6473 130.422H21.3593C21.3593 130.422 24.1353 130.277 25.2133 128.22C26.2913 126.163 27.2173 122.624 27.2173 122.624C27.2173 122.624 28.2193 121.182 25.7533 118.546C23.2873 115.912 17.3513 110.014 17.3513 110.014C17.3513 110.014 16.7503 109.053 14.3533 109.669C11.9573 110.287 9.2093 111.38 9.2093 111.38Z" fill="#111112"/>
<path id="Vector_11" d="M11.2143 112.627C11.2143 112.627 10.8953 112.994 11.0853 114.043C11.2753 115.091 14.3523 127.13 14.3523 127.13C14.3523 127.13 14.8633 128.85 16.7153 128.898H21.5963C21.5963 128.898 23.9673 128.774 24.8883 127.016C25.8103 125.259 26.6003 122.235 26.6003 122.235C26.6003 122.235 27.4573 121.004 25.3493 118.752C23.2423 116.5 18.1713 111.462 18.1713 111.462C18.1713 111.462 17.6583 110.641 15.6093 111.167C13.5623 111.693 11.2143 112.627 11.2143 112.627Z" fill="#353536"/>
<g id="Group_7">
<path id="Vector_12" d="M300.419 15.4149C307.601 19.9339 338.416 42.8699 338.416 42.8699C338.416 42.8699 342.469 45.4179 345.482 43.2749C345.482 43.2749 307.543 14.8589 290.425 7.89995C290.5 7.98095 293.334 10.9589 300.419 15.4149Z" fill="#373736"/>
</g>
<path id="Vector_13" d="M11.5533 102.993C11.5533 102.993 8.2303 105.367 7.1123 107.222L49.2973 99.679L11.5533 102.993Z" fill="#006EB7"/>
<path id="Vector_14" d="M123.093 49.8369C128.644 46.1479 158.567 19.9539 163.537 13.1919C146.881 23.7929 124.198 46.9929 113.71 51.6399C113.71 51.6409 117.231 53.7329 123.093 49.8369Z" fill="#373736"/>
<path id="Vector_15" d="M81.8115 91.594C72.9475 91.357 55.5245 91.877 48.7575 104.423C43.1155 114.881 41.6595 129.22 41.3315 133.705C42.5945 133.705 43.8905 133.705 45.2275 133.705C45.5855 129.218 46.9795 116.884 51.8785 107.802C57.9715 96.506 73.6605 96.036 81.6415 96.251C104.149 96.854 107.199 104.301 110.726 111.975C113.141 117.227 114.29 127.651 114.777 133.703C116.061 133.703 117.355 133.703 118.653 133.703C118.139 127.073 116.866 115.042 114.113 109.056C110.196 100.535 106.808 92.264 81.8115 91.594Z" fill="#285DAB"/>
<path id="Vector_16" opacity="0.4" d="M81.8115 91.594C72.9475 91.357 55.5245 91.877 48.7575 104.423C43.1155 114.881 41.6595 129.22 41.3315 133.705C42.5945 133.705 43.8905 133.705 45.2275 133.705C45.5855 129.218 46.9795 116.884 51.8785 107.802C57.9715 96.506 73.6605 96.036 81.6415 96.251C104.149 96.854 107.199 104.301 110.726 111.975C113.141 117.227 114.29 127.651 114.777 133.703C116.061 133.703 117.355 133.703 118.653 133.703C118.139 127.073 116.866 115.042 114.113 109.056C110.196 100.535 106.808 92.264 81.8115 91.594Z" fill="url(#paint1_linear_161_1633)"/>
<path id="Vector_17" d="M328.466 91.181C319.524 90.943 301.947 91.469 295.12 104.124C289.41 114.706 287.951 129.228 287.625 133.705C289.083 133.705 290.532 133.705 291.962 133.705C292.32 129.219 293.713 116.885 298.613 107.802C304.707 96.506 320.394 96.036 328.375 96.251C350.882 96.854 353.932 104.301 357.46 111.975C359.875 117.229 361.025 127.655 361.512 133.707C361.576 133.707 361.612 133.707 361.612 133.707L365.506 132.132C364.918 125.252 363.627 114.402 361.05 108.798C357.1 100.202 353.683 91.857 328.466 91.181Z" fill="#285DAB"/>
<path id="Vector_18" opacity="0.4" d="M328.466 91.181C319.524 90.943 301.947 91.469 295.12 104.124C289.41 114.706 287.951 129.228 287.625 133.705C289.083 133.705 290.532 133.705 291.962 133.705C292.32 129.219 293.713 116.885 298.613 107.802C304.707 96.506 320.394 96.036 328.375 96.251C350.882 96.854 353.932 104.301 357.46 111.975C359.875 117.229 361.025 127.655 361.512 133.707C361.576 133.707 361.612 133.707 361.612 133.707L365.506 132.132C364.918 125.252 363.627 114.402 361.05 108.798C357.1 100.202 353.683 91.857 328.466 91.181Z" fill="url(#paint2_linear_161_1633)"/>
<g id="Group_8">
<path id="Vector_19" d="M17.7037 82.63C17.7037 82.63 16.3027 82.734 15.6807 84.083C15.0587 85.433 12.4688 95.029 12.4688 96.274C12.4688 97.517 25.5757 93.988 26.9717 93.341C32.7147 90.682 38.5557 82.896 38.5557 82.722C38.5557 82.548 40.3067 79.54 35.7327 79.405C31.1567 79.271 17.7037 82.63 17.7037 82.63Z" fill="#4A4B4C"/>
<path id="Vector_20" d="M21.4069 82.879C21.4069 82.879 20.3349 82.958 19.8589 83.99C19.3819 85.023 17.4009 92.367 17.4009 93.319C17.4009 94.272 27.4309 91.571 28.4999 91.076C32.8939 89.041 37.3639 83.083 37.3639 82.95C37.3639 82.816 38.7049 80.514 35.2039 80.41C31.7009 80.308 21.4069 82.879 21.4069 82.879Z" fill="#111112"/>
<path id="Vector_21" opacity="0.2" d="M32.7368 80.408C32.7368 80.408 17.4868 82.744 16.5788 83.977C15.6708 85.209 13.5288 94.425 13.5288 94.425C13.5288 94.425 22.6788 90.142 26.8318 86.313C30.9838 82.485 32.9968 80.408 32.9968 80.408H32.7368Z" fill="#F6F6F6"/>
<path id="Vector_22" opacity="0.8" d="M20.884 84.145C23.181 82.931 25.692 81.952 28.186 81.235C28.4 81.172 28.615 81.11 28.829 81.047C24.245 81.828 17.187 83.151 16.579 83.979C15.849 84.97 14.324 91.112 13.752 93.488C15.431 89.766 17.041 86.172 20.884 84.145Z" fill="#F6F6F6"/>
</g>
<g id="Group_9">
<path id="Vector_23" d="M379.19 63.375C379.19 63.375 376.874 63.953 376.989 65.228C377.106 66.503 382.897 72.294 382.897 72.294C382.897 72.294 383.594 72.881 385.794 73.804C387.995 74.727 402.475 78.897 402.475 78.897C402.475 78.897 404.085 79.231 405.341 79.024V61.9C405.341 61.9 405.327 61.689 405.219 61.339C405.219 61.339 388.459 61.521 379.19 63.375Z" fill="#B51B1C"/>
<path id="Vector_24" d="M379.19 63.375C379.19 63.375 376.874 63.953 376.989 65.228C377.106 66.503 382.897 72.294 382.897 72.294C382.897 72.294 383.594 72.881 385.794 73.804C387.995 74.727 402.475 78.897 402.475 78.897C402.475 78.897 404.085 79.231 405.341 79.024V61.9C405.341 61.9 405.327 61.689 405.219 61.339C405.219 61.339 388.459 61.521 379.19 63.375Z" fill="#880C09"/>
<path id="Vector_25" d="M380.266 64.268C380.266 64.268 378.098 64.738 378.207 65.77C378.316 66.802 383.735 71.497 383.735 71.497C383.735 71.497 384.386 71.972 386.446 72.72C388.505 73.468 402.053 76.847 402.053 76.847C402.053 76.847 403.56 77.116 404.736 76.949V63.073C404.736 63.073 404.721 62.903 404.622 62.62C404.622 62.62 388.938 62.766 380.266 64.268Z" fill="#B51B1C"/>
<path id="Vector_26" d="M380.467 67.429C380.467 67.429 377.744 65.403 380.467 64.88C383.188 64.359 402.419 63.143 404.156 63.317V72.875C404.156 72.875 403.636 68.01 400.102 67.313C396.569 66.618 380.467 67.429 380.467 67.429Z" fill="#B51B1C"/>
<path id="Vector_27" opacity="0.4" d="M386.556 72.004C384.191 71.542 382.146 68.761 382.146 68.761C382.146 68.761 384.289 70.267 387.359 70.904C390.43 71.543 404.156 73.628 404.156 73.628V76.479L386.556 72.004Z" fill="#B75526"/>
</g>
<g id="Group_10">
<path id="Vector_28" d="M291.964 135.111C291.964 136.639 285.899 137.88 284.422 137.88H122.76C121.282 137.88 114.929 136.64 114.929 135.111C114.929 133.582 121.283 132.343 122.76 132.343H284.422C285.898 132.344 291.964 133.582 291.964 135.111Z" fill="#B6B7B9"/>
<path id="Vector_29" opacity="0.5" d="M114.935 135.061C114.934 135.078 114.929 135.094 114.929 135.111C114.929 136.639 121.283 137.88 122.76 137.88H284.422C285.899 137.88 291.964 136.64 291.964 135.111C291.964 135.094 291.96 135.078 291.958 135.061H114.935Z" fill="#B6B7B9"/>
</g>
<g id="Group_11">
<path id="Vector_30" d="M15.9561 111.087L20.2091 128.898H21.5961C21.5961 128.898 21.7311 128.89 21.9451 128.857L17.7131 111.138C17.3801 111.003 16.8291 110.911 15.9561 111.087Z" fill="black"/>
<path id="Vector_31" d="M11.2143 112.627C11.2143 112.627 10.8953 112.994 11.0853 114.043C11.2753 115.091 14.3523 127.13 14.3523 127.13C14.3523 127.13 14.6523 128.128 15.6153 128.624L11.7443 112.424C11.4153 112.547 11.2143 112.627 11.2143 112.627Z" fill="black"/>
<path id="Vector_32" d="M19.5483 112.835L23.2793 128.459C23.7293 128.253 24.1883 127.953 24.5513 127.513L21.5173 114.814C20.7993 114.088 20.1123 113.398 19.5483 112.835Z" fill="black"/>
<path id="Vector_33" d="M13.0615 111.948L17.1095 128.897H18.7805L14.6135 111.446C14.0705 111.609 13.5385 111.784 13.0615 111.948Z" fill="black"/>
<path id="Vector_34" d="M26.6013 122.234C26.6013 122.234 27.4583 121.003 25.3503 118.751C24.8383 118.204 24.1513 117.493 23.4053 116.73L25.5223 125.587C26.1443 123.979 26.6013 122.234 26.6013 122.234Z" fill="black"/>
<path id="Vector_35" d="M11.7441 112.424L15.6151 128.624C15.9141 128.779 16.2761 128.886 16.7151 128.898H17.1091L13.0611 111.949C12.5321 112.131 12.0741 112.299 11.7441 112.424Z" fill="#313132"/>
<path id="Vector_36" d="M15.6103 111.166C15.2813 111.251 14.9463 111.347 14.6133 111.446L18.7803 128.897H20.2093L15.9563 111.086C15.8463 111.109 15.7313 111.134 15.6103 111.166Z" fill="#313132"/>
<path id="Vector_37" d="M18.1724 111.461C18.1724 111.461 18.0544 111.277 17.7144 111.138L21.9464 128.857C22.2664 128.807 22.7654 128.695 23.2804 128.46L19.5494 112.836C18.7284 112.015 18.1724 111.461 18.1724 111.461Z" fill="#313132"/>
<path id="Vector_38" d="M25.5211 125.587L23.4041 116.73C22.7941 116.106 22.1451 115.447 21.5171 114.814L24.5511 127.513C24.6751 127.364 24.7911 127.2 24.8871 127.016C25.1091 126.594 25.3231 126.097 25.5211 125.587Z" fill="#313132"/>
</g>
<path id="Vector_39" opacity="0.4" d="M121.439 63.0569L122.628 75.9389L38.4937 84.1679C38.4937 84.1679 39.6517 79.4019 46.6027 75.6169C53.5547 71.8309 121.439 63.0569 121.439 63.0569Z" fill="url(#paint3_linear_161_1633)"/>
<path id="Vector_40" opacity="0.4" d="M110.319 53.645L45.2266 70.018C45.2266 70.018 89.6096 60.482 96.3006 58.911C105.163 56.829 110.319 53.645 110.319 53.645Z" fill="white"/>
<path id="Vector_41" opacity="0.4" d="M323.708 58.4581L318.386 64.8551L397.611 58.9101L323.708 58.4581Z" fill="url(#paint4_linear_161_1633)"/>
<g id="Left_Tyre">
<path id="Vector_42" d="M112.086 131.419C112.086 148.645 98.1238 162.608 80.9018 162.608C63.6798 162.608 49.7168 148.645 49.7168 131.419C49.7168 114.197 63.6798 100.232 80.9018 100.232C98.1238 100.232 112.086 114.197 112.086 131.419Z" fill="#363635"/>
<path id="Vector_43" d="M112.087 131.396C112.087 148.623 98.1238 162.585 80.9018 162.585C63.6798 162.585 49.7168 148.622 49.7168 131.396C49.7168 114.175 63.6798 100.209 80.9018 100.209C98.1238 100.209 112.087 114.176 112.087 131.396Z" fill="#4F4E4D"/>
<path id="Vector_44" d="M110.318 131.375C110.318 147.623 97.1478 160.794 80.9018 160.794C64.6558 160.794 51.4878 147.623 51.4878 131.375C51.4878 115.132 64.6568 101.959 80.9018 101.959C97.1468 101.959 110.318 115.132 110.318 131.375Z" fill="#2D2D2C"/>
<g id="Group_12">
<g id="Group_13">
<g id="Left_T">
<path id="Vector_45" d="M106.102 131.396C106.102 145.315 94.8196 156.594 80.9016 156.594C66.9886 156.594 55.7036 145.315 55.7036 131.396C55.7036 117.481 66.9886 106.2 80.9016 106.2C94.8196 106.2 106.102 117.481 106.102 131.396Z" fill="#909295"/>
<path id="Vector_46" d="M103.908 131.396C103.908 144.106 93.6094 154.403 80.9014 154.403C68.1964 154.403 57.8994 144.106 57.8994 131.396C57.8994 118.69 68.1974 108.392 80.9014 108.392C93.6084 108.393 103.908 118.69 103.908 131.396Z" fill="url(#paint5_linear_161_1633)"/>
<path id="Vector_47" d="M92.4356 117.693C92.4736 117.422 92.4496 117.156 92.3396 116.894C89.8916 114.692 86.7326 113.269 83.2456 112.998C82.9186 113.072 82.6226 113.209 82.3666 113.415C82.2436 113.588 82.1446 113.771 82.0566 113.97V126.764C82.1246 126.937 82.2066 127.095 82.3116 127.254C82.3796 127.29 82.4546 127.328 82.5286 127.362C82.7396 127.341 82.9446 127.302 83.1416 127.234L92.3186 118.05C92.3676 117.934 92.4056 117.815 92.4356 117.693Z" fill="#151513"/>
<path id="Vector_48" d="M99.1651 130.327C99.3841 130.161 99.5541 129.954 99.6591 129.694C99.4881 126.405 98.2631 123.165 95.9861 120.51C95.7031 120.331 95.3931 120.217 95.0651 120.179C94.8611 120.218 94.6611 120.28 94.4601 120.36L85.4131 129.406C85.3411 129.573 85.2841 129.746 85.2471 129.925C85.2691 130.004 85.2981 130.087 85.3251 130.165C85.4871 130.298 85.6631 130.414 85.8461 130.502H98.8301C98.9481 130.454 99.0561 130.398 99.1651 130.327Z" fill="#151513"/>
<path id="Vector_49" d="M94.7722 143.614C95.0442 143.651 95.3132 143.634 95.5752 143.526C97.8202 141.119 99.2982 137.987 99.6282 134.505C99.5642 134.177 99.4302 133.877 99.2272 133.615C99.0562 133.495 98.8732 133.388 98.6742 133.297L85.8862 133.076C85.7132 133.141 85.5532 133.222 85.3922 133.32C85.3552 133.393 85.3142 133.468 85.2842 133.543C85.2942 133.75 85.3342 133.958 85.3992 134.152L94.4162 143.492C94.5342 143.541 94.6532 143.584 94.7722 143.614Z" fill="#151513"/>
<path id="Vector_50" d="M82.368 149.311C82.535 149.527 82.742 149.698 83.004 149.796C86.29 149.578 89.515 148.302 92.133 145.991C92.31 145.707 92.423 145.395 92.45 145.063C92.408 144.865 92.351 144.661 92.266 144.46L83.089 135.54C82.923 135.475 82.746 135.42 82.568 135.385C82.486 135.41 82.412 135.439 82.33 135.469C82.201 135.628 82.092 135.804 82 135.995L82.181 148.977C82.238 149.094 82.297 149.205 82.368 149.311Z" fill="#151513"/>
<path id="Vector_51" d="M69.3669 117.693C69.3289 117.422 69.3559 117.156 69.4629 116.894C71.9149 114.692 75.0739 113.269 78.5609 112.998C78.8849 113.072 79.1839 113.209 79.4419 113.415C79.5589 113.588 79.6569 113.771 79.7459 113.97V126.764C79.6809 126.937 79.5959 127.095 79.4939 127.254C79.4229 127.29 79.3459 127.328 79.2689 127.362C79.0649 127.341 78.8599 127.302 78.6569 127.234L69.4819 118.05C69.4349 117.934 69.3939 117.815 69.3669 117.693Z" fill="#151513"/>
<path id="Vector_52" d="M62.642 130.327C62.423 130.161 62.25 129.954 62.145 129.694C62.318 126.405 63.544 123.165 65.826 120.51C66.101 120.331 66.409 120.217 66.735 120.179C66.945 120.218 67.143 120.28 67.351 120.36L76.395 129.406C76.467 129.573 76.519 129.746 76.56 129.925C76.538 130.004 76.512 130.087 76.481 130.165C76.321 130.298 76.144 130.414 75.96 130.502H62.975C62.859 130.454 62.744 130.398 62.642 130.327Z" fill="#151513"/>
<path id="Vector_53" d="M67.0312 143.614C66.7572 143.651 66.4892 143.634 66.2272 143.526C63.9832 141.119 62.5052 137.987 62.1782 134.505C62.2442 134.177 62.3752 133.877 62.5792 133.615C62.7462 133.495 62.9332 133.388 63.1322 133.297L75.9182 133.076C76.0922 133.141 76.2512 133.222 76.4142 133.32C76.4522 133.393 76.4872 133.468 76.5232 133.543C76.5102 133.75 76.4692 133.958 76.4072 134.152L67.3842 143.492C67.2692 143.541 67.1502 143.584 67.0312 143.614Z" fill="#151513"/>
<path id="Vector_54" d="M79.4421 149.311C79.2691 149.527 79.0651 149.698 78.8021 149.796C75.5121 149.578 72.2851 148.302 69.6691 145.991C69.4881 145.707 69.3841 145.395 69.3491 145.063C69.3941 144.865 69.4521 144.661 69.5361 144.46L78.7131 135.54C78.8811 135.475 79.0571 135.42 79.2341 135.385C79.3161 135.41 79.3911 135.439 79.4731 135.469C79.6051 135.628 79.7101 135.804 79.8031 135.995L79.6171 148.977C79.5681 149.094 79.5111 149.205 79.4421 149.311Z" fill="#151513"/>
</g>
</g>
<path id="Vector_55" d="M87.6595 131.396C87.6595 135.129 84.6365 138.156 80.9015 138.156C77.1725 138.156 74.1445 135.13 74.1445 131.396C74.1445 127.666 77.1725 124.641 80.9015 124.641C84.6365 124.642 87.6595 127.666 87.6595 131.396Z" fill="#969792"/>
<path id="Vector_56" d="M85.2838 128.076C85.2838 128.54 84.9028 128.916 84.4388 128.916C83.9678 128.916 83.5938 128.54 83.5938 128.076C83.5938 127.609 83.9678 127.234 84.4388 127.234C84.9018 127.234 85.2838 127.609 85.2838 128.076Z" fill="#C2C4C6"/>
<path id="Vector_57" d="M81.7727 126.874C81.7727 127.339 81.3987 127.713 80.9337 127.713C80.4707 127.713 80.0967 127.339 80.0967 126.874C80.0967 126.408 80.4707 126.034 80.9337 126.034C81.3987 126.034 81.7727 126.408 81.7727 126.874Z" fill="#C2C4C6"/>
<path id="Vector_58" d="M78.2104 128.208C78.2104 128.669 77.8314 129.043 77.3684 129.043C76.9024 129.043 76.5244 128.669 76.5244 128.208C76.5244 127.74 76.9024 127.362 77.3684 127.362C77.8314 127.362 78.2104 127.74 78.2104 128.208Z" fill="#C2C4C6"/>
<path id="Vector_59" d="M85.2838 135.432C85.2838 134.966 84.9028 134.587 84.4388 134.587C83.9678 134.587 83.5938 134.966 83.5938 135.432C83.5938 135.894 83.9678 136.271 84.4388 136.271C84.9018 136.27 85.2838 135.894 85.2838 135.432Z" fill="#C2C4C6"/>
<path id="Vector_60" d="M86.9316 131.918C86.9316 131.453 86.5486 131.076 86.0826 131.076C85.6196 131.076 85.2456 131.453 85.2456 131.918C85.2456 132.381 85.6196 132.755 86.0826 132.755C86.5486 132.755 86.9316 132.381 86.9316 131.918Z" fill="#C2C4C6"/>
<path id="Vector_61" d="M76.5594 131.918C76.5594 131.453 76.1854 131.076 75.7224 131.076C75.2554 131.076 74.8774 131.453 74.8774 131.918C74.8774 132.381 75.2554 132.755 75.7224 132.755C76.1854 132.755 76.5594 132.381 76.5594 131.918Z" fill="#C2C4C6"/>
<path id="Vector_62" d="M81.7727 136.632C81.7727 136.165 81.3987 135.793 80.9337 135.793C80.4707 135.793 80.0967 136.165 80.0967 136.632C80.0967 137.097 80.4707 137.472 80.9337 137.472C81.3987 137.472 81.7727 137.097 81.7727 136.632Z" fill="#C2C4C6"/>
<path id="Vector_63" d="M78.2104 135.3C78.2104 134.838 77.8314 134.46 77.3684 134.46C76.9024 134.46 76.5244 134.838 76.5244 135.3C76.5244 135.767 76.9024 136.141 77.3684 136.141C77.8314 136.141 78.2104 135.767 78.2104 135.3Z" fill="#C2C4C6"/>
</g>
</g>
</g>
<g id="Right_Tyre">
<path id="Vector_64" d="M358.017 131.419C358.017 148.645 344.056 162.608 326.833 162.608C309.61 162.608 295.648 148.645 295.648 131.419C295.648 114.197 309.61 100.232 326.833 100.232C344.056 100.232 358.017 114.197 358.017 131.419Z" fill="#363635"/>
<path id="Vector_65" d="M358.019 131.396C358.019 148.623 344.056 162.585 326.834 162.585C309.61 162.585 295.648 148.622 295.648 131.396C295.648 114.175 309.61 100.209 326.834 100.209C344.056 100.21 358.019 114.176 358.019 131.396Z" fill="#4F4E4D"/>
<path id="Vector_66" d="M356.248 131.375C356.248 147.623 343.079 160.794 326.834 160.794C310.588 160.794 297.419 147.623 297.419 131.375C297.419 115.132 310.588 101.959 326.834 101.959C343.079 101.959 356.248 115.132 356.248 131.375Z" fill="#2D2D2C"/>
<g id="Group_14">
<g id="Group_15">
<g id="Right_T">
<path id="Vector_67" d="M352.033 131.396C352.033 145.315 340.752 156.594 326.833 156.594C312.919 156.594 301.634 145.315 301.634 131.396C301.634 117.481 312.919 106.2 326.833 106.2C340.752 106.2 352.033 117.481 352.033 131.396Z" fill="#909295"/>
<path id="Vector_68" d="M349.84 131.396C349.84 144.106 339.539 154.403 326.833 154.403C314.127 154.403 303.831 144.106 303.831 131.396C303.831 118.69 314.127 108.392 326.833 108.392C339.54 108.393 349.84 118.69 349.84 131.396Z" fill="url(#paint6_linear_161_1633)"/>
<path id="Vector_69" d="M338.368 117.693C338.406 117.422 338.382 117.156 338.273 116.894C335.825 114.692 332.665 113.269 329.178 112.998C328.851 113.072 328.556 113.209 328.3 113.415C328.177 113.588 328.078 113.771 327.989 113.97V126.764C328.057 126.937 328.139 127.095 328.244 127.254C328.312 127.29 328.387 127.328 328.461 127.362C328.672 127.341 328.877 127.302 329.076 127.234L338.252 118.05C338.299 117.934 338.337 117.815 338.368 117.693Z" fill="#151513"/>
<path id="Vector_70" d="M345.097 130.327C345.315 130.161 345.486 129.954 345.591 129.694C345.42 126.405 344.194 123.165 341.917 120.51C341.634 120.331 341.324 120.217 340.997 120.179C340.792 120.218 340.593 120.28 340.392 120.36L331.345 129.406C331.273 129.573 331.215 129.746 331.178 129.925C331.202 130.004 331.229 130.087 331.256 130.165C331.416 130.298 331.592 130.414 331.777 130.502H344.76C344.879 130.454 344.988 130.398 345.097 130.327Z" fill="#151513"/>
<path id="Vector_71" d="M340.704 143.614C340.978 143.651 341.246 143.634 341.509 143.526C343.752 141.119 345.231 137.987 345.561 134.505C345.496 134.177 345.363 133.877 345.16 133.615C344.989 133.495 344.805 133.388 344.608 133.297L331.817 133.076C331.644 133.141 331.484 133.222 331.324 133.32C331.287 133.393 331.246 133.468 331.215 133.543C331.225 133.75 331.266 133.958 331.331 134.152L340.348 143.492C340.466 143.541 340.586 143.584 340.704 143.614Z" fill="#151513"/>
<path id="Vector_72" d="M328.3 149.311C328.467 149.527 328.674 149.698 328.937 149.796C332.222 149.578 335.447 148.302 338.066 145.991C338.244 145.707 338.355 145.395 338.383 145.063C338.341 144.865 338.284 144.661 338.199 144.46L329.022 135.54C328.855 135.475 328.679 135.42 328.5 135.385C328.419 135.41 328.344 135.439 328.262 135.469C328.132 135.628 328.024 135.804 327.932 135.995L328.113 148.977C328.169 149.094 328.228 149.205 328.3 149.311Z" fill="#151513"/>
<path id="Vector_73" d="M315.299 117.693C315.261 117.422 315.289 117.156 315.394 116.894C317.845 114.692 321.006 113.269 324.494 112.998C324.816 113.072 325.116 113.209 325.374 113.415C325.491 113.588 325.589 113.771 325.678 113.97V126.764C325.613 126.937 325.527 127.095 325.426 127.254C325.354 127.29 325.277 127.328 325.201 127.362C324.997 127.341 324.792 127.302 324.588 127.234L315.415 118.05C315.366 117.934 315.325 117.815 315.299 117.693Z" fill="#151513"/>
<path id="Vector_74" d="M308.574 130.327C308.356 130.161 308.182 129.954 308.077 129.694C308.25 126.405 309.476 123.165 311.758 120.51C312.033 120.331 312.341 120.217 312.667 120.179C312.878 120.218 313.075 120.28 313.283 120.36L322.326 129.406C322.399 129.573 322.449 129.746 322.491 129.925C322.47 130.004 322.444 130.087 322.412 130.165C322.253 130.298 322.077 130.414 321.892 130.502H308.909C308.791 130.454 308.676 130.398 308.574 130.327Z" fill="#151513"/>
<path id="Vector_75" d="M312.961 143.614C312.69 143.651 312.421 143.634 312.159 143.526C309.914 141.119 308.437 137.987 308.11 134.505C308.174 134.177 308.307 133.877 308.512 133.615C308.679 133.495 308.866 133.388 309.064 133.297L321.85 133.076C322.023 133.141 322.183 133.222 322.347 133.32C322.383 133.393 322.418 133.468 322.456 133.543C322.443 133.75 322.401 133.958 322.34 134.152L313.317 143.492C313.201 143.541 313.082 143.584 312.961 143.614Z" fill="#151513"/>
<path id="Vector_76" d="M325.373 149.311C325.2 149.527 324.996 149.698 324.733 149.796C321.445 149.578 318.216 148.302 315.601 145.991C315.421 145.707 315.315 145.395 315.281 145.063C315.324 144.865 315.384 144.661 315.469 144.46L324.645 135.54C324.812 135.475 324.988 135.42 325.166 135.385C325.248 135.41 325.323 135.439 325.404 135.469C325.537 135.628 325.643 135.804 325.734 135.995L325.55 148.977C325.499 149.094 325.443 149.205 325.373 149.311Z" fill="#151513"/>
</g>
</g>
<path id="Vector_77" d="M333.592 131.396C333.592 135.129 330.568 138.156 326.834 138.156C323.105 138.156 320.077 135.13 320.077 131.396C320.077 127.666 323.105 124.641 326.834 124.641C330.568 124.642 333.592 127.666 333.592 131.396Z" fill="#969792"/>
<path id="Vector_78" d="M331.214 128.076C331.214 128.54 330.833 128.916 330.37 128.916C329.9 128.916 329.525 128.54 329.525 128.076C329.525 127.609 329.9 127.234 330.37 127.234C330.832 127.234 331.214 127.609 331.214 128.076Z" fill="#C2C4C6"/>
<path id="Vector_79" d="M327.705 126.874C327.705 127.339 327.33 127.713 326.867 127.713C326.404 127.713 326.03 127.339 326.03 126.874C326.03 126.408 326.405 126.034 326.867 126.034C327.33 126.034 327.705 126.408 327.705 126.874Z" fill="#C2C4C6"/>
<path id="Vector_80" d="M324.144 128.208C324.144 128.669 323.766 129.043 323.302 129.043C322.837 129.043 322.458 128.669 322.458 128.208C322.458 127.74 322.836 127.362 323.302 127.362C323.765 127.362 324.144 127.74 324.144 128.208Z" fill="#C2C4C6"/>
<path id="Vector_81" d="M331.214 135.432C331.214 134.966 330.833 134.587 330.37 134.587C329.9 134.587 329.525 134.966 329.525 135.432C329.525 135.894 329.9 136.271 330.37 136.271C330.832 136.27 331.214 135.894 331.214 135.432Z" fill="#C2C4C6"/>
<path id="Vector_82" d="M332.863 131.918C332.863 131.453 332.482 131.076 332.015 131.076C331.552 131.076 331.178 131.453 331.178 131.918C331.178 132.381 331.552 132.755 332.015 132.755C332.482 132.755 332.863 132.381 332.863 131.918Z" fill="#C2C4C6"/>
<path id="Vector_83" d="M322.491 131.918C322.491 131.453 322.116 131.076 321.654 131.076C321.187 131.076 320.809 131.453 320.809 131.918C320.809 132.381 321.187 132.755 321.654 132.755C322.116 132.755 322.491 132.381 322.491 131.918Z" fill="#C2C4C6"/>
<path id="Vector_84" d="M327.705 136.632C327.705 136.165 327.33 135.793 326.867 135.793C326.404 135.793 326.03 136.165 326.03 136.632C326.03 137.097 326.405 137.472 326.867 137.472C327.33 137.472 327.705 137.097 327.705 136.632Z" fill="#C2C4C6"/>
<path id="Vector_85" d="M324.144 135.3C324.144 134.838 323.766 134.46 323.302 134.46C322.837 134.46 322.458 134.838 322.458 135.3C322.458 135.767 322.836 136.141 323.302 136.141C323.765 136.141 324.144 135.767 324.144 135.3Z" fill="#C2C4C6"/>
</g>
</g>
</g>
<g id="Group_16">
<g id="Group_17">
<g id="Group_18">
<path id="Vector_86" d="M222.984 7.90593C222.984 7.90593 176.859 7.06893 159.99 20.1629C143.121 33.2579 125.563 49.6619 124.961 54.4539C124.359 59.2469 130.004 120.978 130.004 120.978C130.004 120.978 130.61 127.223 135.345 126.669H269.917C269.917 126.669 276.438 126.418 278.523 122.177C281.998 115.111 281.132 115.23 320.481 60.3619C320.481 60.3619 322.775 57.8379 324.105 53.5339C325.051 50.4729 325.334 43.9819 325.334 43.9819C325.334 43.9819 325.726 38.3919 322.08 34.8769C318.434 31.3609 301.993 17.0009 289.875 12.7809C275.454 7.75893 222.984 7.90593 222.984 7.90593Z" fill="#285DAB"/>
<path id="Vector_87" d="M134.764 127.052C130.297 127.052 129.664 121.073 129.658 121.012C129.428 118.488 124.017 59.1859 124.616 54.4099C124.987 51.4629 131.086 45.0389 136.135 40.1719C142.669 33.8729 151.286 26.4809 159.778 19.8889C174.909 8.14392 213.693 7.54892 221.314 7.54892C222.396 7.54892 222.992 7.55892 222.992 7.55892H223.46C228.831 7.55892 276.333 7.69692 289.993 12.4539C302.133 16.6829 318.583 31.0199 322.325 34.6279C326.043 38.2149 325.7 43.7739 325.683 44.0079C325.671 44.2659 325.388 50.5699 324.44 53.6389C323.143 57.8389 320.97 60.3419 320.755 60.5809C283.779 112.138 282.321 115.145 279.423 121.132C279.237 121.515 279.045 121.911 278.837 122.333C276.685 126.709 270.206 127.008 269.932 127.018H135.365C135.161 127.04 134.96 127.052 134.764 127.052ZM221.314 8.24392C213.732 8.24392 175.156 8.83092 160.205 20.4379C139.248 36.7049 125.773 50.7829 125.308 54.4969C124.718 59.1979 130.296 120.33 130.353 120.946C130.357 120.999 130.93 126.357 134.766 126.357C134.94 126.357 135.123 126.344 135.306 126.324L135.348 126.322H269.92C269.969 126.32 276.246 126.027 278.214 122.024C278.421 121.604 278.612 121.209 278.797 120.826C281.714 114.805 283.178 111.782 320.202 60.1599L320.227 60.1289C320.249 60.1039 322.487 57.6049 323.777 53.4329C324.698 50.4499 324.986 44.0319 324.988 43.9669C324.992 43.9039 325.323 38.4859 321.841 35.1269C318.124 31.5419 301.784 17.2959 289.764 13.1099C276.213 8.38892 228.819 8.25192 223.46 8.25192L222.987 8.25392C222.977 8.25492 222.386 8.24392 221.314 8.24392Z" fill="#373736"/>
</g>
<path id="Vector_88" d="M216.433 8.79692C216.433 8.79692 186.429 10.2439 173.803 15.4069C163.26 19.7189 160.477 21.3469 155.323 25.3819C155.323 25.3819 149.203 30.9249 144.358 35.2679C139.513 39.6109 124.454 53.6679 127.928 54.1689C131.404 54.6709 321.654 54.1689 321.654 54.1689C321.654 54.1689 322.952 54.2639 323.183 52.3539C323.415 50.4419 324.888 42.1229 322.495 38.0759C320.102 34.0309 301.492 20.2939 298.828 18.7879C296.163 17.2829 289.126 13.0839 282.581 12.2139C276.036 11.3459 242.846 9.20192 242.846 9.20192L216.433 8.79692Z" fill="#3B3C3C"/>
<path id="Vector_89" opacity="0.3" d="M179.29 40.1149C214.909 34.1229 251.379 32.1359 287.446 33.7669C298.621 34.2719 309.809 35.0519 320.951 36.2019C315.798 30.8609 301.166 20.1089 298.826 18.7859C296.161 17.2809 289.124 13.0819 282.579 12.2119C276.034 11.3439 242.844 9.19991 242.844 9.19991L216.432 8.79591C216.432 8.79591 186.428 10.2429 173.802 15.4059C163.259 19.7179 160.476 21.3459 155.322 25.3809C155.322 25.3809 149.202 30.9239 144.357 35.2669C140.301 38.9039 129.086 49.3479 127.582 52.9449C144.411 47.2259 161.762 43.0649 179.29 40.1149Z" fill="url(#paint7_linear_161_1633)"/>
<path id="Vector_90" d="M322.493 38.0749C320.1 34.0299 301.49 20.2929 298.826 18.7869C296.161 17.2819 289.124 13.0829 282.579 12.2129C276.034 11.3449 242.844 9.20092 242.844 9.20092L216.432 8.79692C216.432 8.79692 186.428 10.2439 173.802 15.4069C163.259 19.7189 160.476 21.3469 155.322 25.3819C155.322 25.3819 149.202 30.9249 144.357 35.2679C139.512 39.6109 124.453 53.6679 127.927 54.1689C131.403 54.6709 321.653 54.1689 321.653 54.1689C321.653 54.1689 322.951 54.2639 323.182 52.3539C323.414 50.4409 324.887 42.1219 322.493 38.0749ZM313.608 50.5939C313.398 52.3279 312.22 52.2399 312.22 52.2399C312.22 52.2399 139.676 52.6959 136.525 52.2399C133.373 51.7869 147.031 39.0379 151.425 35.0989C155.819 31.1609 161.369 26.1319 161.369 26.1319C166.043 22.4719 168.566 20.9959 178.129 17.0859C189.581 12.4019 216.792 11.0899 216.792 11.0899L240.746 11.4579C240.746 11.4579 270.847 13.3999 276.783 14.1889C282.72 14.9779 289.101 18.7869 291.518 20.1519C293.934 21.5169 310.811 33.9769 312.982 37.6449C315.154 41.3129 313.819 48.8599 313.608 50.5939Z" fill="#3B3C3C"/>
<g id="Group_19">
<path id="Vector_91" d="M127.926 54.0679C128.403 54.1369 132.405 54.1879 138.944 54.2219L139.601 39.5559C133.438 45.3879 125.271 53.6869 127.926 54.0679Z" fill="#272728"/>
</g>
<g id="Group_20">
<path id="Vector_92" d="M130.438 48.8789C131.033 50.3959 131.539 51.9459 132.029 53.5019C132.097 53.7199 132.158 53.9419 132.216 54.1709C133.981 54.1919 136.246 54.2079 138.945 54.2229L139.602 39.5569C136.511 42.4799 132.918 46.0219 130.438 48.8789Z" fill="#272728"/>
</g>
<path id="Vector_93" d="M139.913 40.4229C137.775 42.3029 132.873 46.6779 132.331 47.7239C131.636 49.0679 133.257 53.5499 134.357 54.7269C134.357 54.7269 134.937 55.3809 135.863 55.6139C136.472 55.7659 140.084 55.0509 142.488 54.5429C142.182 49.7409 141.339 45.0189 139.913 40.4229Z" fill="#373736"/>
<path id="Vector_94" d="M139.913 40.4229C137.775 42.3029 132.873 46.6779 132.331 47.7239C131.636 49.0679 133.257 53.5499 134.357 54.7269C134.357 54.7269 134.937 55.3809 135.863 55.6139C136.472 55.7659 140.084 55.0509 142.488 54.5429C142.182 49.7409 141.339 45.0189 139.913 40.4229Z" fill="#373736"/>
<path id="Vector_95" d="M134.695 46.3419C136.511 44.7969 138.421 43.3489 140.364 41.9599C140.22 41.4449 140.071 40.9329 139.912 40.4229C137.774 42.3029 132.872 46.6779 132.33 47.7239C132.146 48.0779 132.127 48.6549 132.214 49.3279C132.755 48.1729 133.702 47.1879 134.695 46.3419Z" fill="#373736"/>
<path id="Vector_96" opacity="0.5" d="M141.956 49.4769C141.975 50.2019 141.961 50.9279 141.891 51.6599C141.744 53.1779 140.208 53.4369 138.951 53.5879C137.397 53.7739 135.572 53.9089 134.422 52.6079C133.366 51.4129 132.637 49.9159 132.173 48.3819C132.043 50.1599 133.398 53.7009 134.358 54.7289C134.358 54.7289 134.938 55.3829 135.864 55.6159C136.473 55.7679 140.085 55.0529 142.489 54.5449C142.379 52.8429 142.201 51.1539 141.956 49.4769Z" fill="#373736"/>
<path id="Vector_97" d="M226.278 13.7929L221.934 54.2659L231.928 54.3099C232.866 32.6549 233.645 13.8849 233.645 13.8849C233.645 13.8849 233.085 10.8159 239.253 9.14692L221.173 8.86992C221.173 8.86992 226.105 9.21692 226.278 13.7929Z" fill="#363436"/>
<path id="Vector_98" opacity="0.5" d="M322.493 55.2859H226.374C228.086 34.1889 230.183 9.34192 230.218 8.93192L229.526 8.87292C229.491 9.28392 227.391 34.1719 225.676 55.2859H124.931V55.9809H225.621C224.534 69.3669 223.617 81.0969 223.498 83.8869C223.288 88.8419 222.12 126.483 222.108 126.863L222.803 126.885C222.814 126.505 223.982 88.8679 224.192 83.9169C224.311 81.1289 225.23 69.3809 226.317 55.9809H322.492V55.2859H322.493Z" fill="#6E6C6D"/>
</g>
<path id="Vector_99" opacity="0.4" d="M127.982 62.5849L129.413 75.9379L312.813 65.0839L317.953 58.9099L127.982 62.5849Z" fill="url(#paint8_linear_161_1633)"/>
<g id="Group_21">
<path id="Vector_100" d="M213.157 69.8579C213.157 72.6819 208.805 74.9709 203.44 74.9709C198.071 74.9709 193.721 72.6819 193.721 69.8579C193.721 67.0349 198.071 64.7449 203.44 64.7449C208.806 64.7449 213.157 67.0349 213.157 69.8579Z" fill="#006EB7"/>
<path id="Vector_101" d="M212.835 70.0279C212.835 72.7579 208.628 74.9709 203.439 74.9709C198.248 74.9709 194.042 72.7579 194.042 70.0279C194.042 67.2979 198.248 65.0839 203.439 65.0839C208.627 65.0839 212.835 67.2979 212.835 70.0279Z" fill="#006EB7"/>
<g id="Group_22">
<path id="Vector_102" d="M215.507 69.7399C215.507 68.2859 210.188 67.6619 203.627 67.6619C197.064 67.6619 191.745 68.2859 191.745 69.7399C191.745 71.1939 197.063 72.3739 203.627 72.3739C210.188 72.3739 215.507 71.1939 215.507 69.7399Z" fill="#285DAB"/>
<path id="Vector_103" d="M197.174 68.6739C199.946 68.4269 202.722 68.3319 205.507 68.3169C208.395 68.3009 211.295 68.3689 214.172 68.6479C212.192 67.9679 208.214 67.6629 203.627 67.6629C197.392 67.6629 192.283 68.2259 191.788 69.5289C193.505 68.9469 195.378 68.8329 197.174 68.6739Z" fill="#285DAB"/>
<path id="Vector_104" d="M203.627 67.6619C197.064 67.6619 191.745 68.2859 191.745 69.7399C191.745 71.1939 197.063 72.3739 203.627 72.3739C210.188 72.3739 215.507 71.1939 215.507 69.7399C215.507 68.2859 210.188 67.6619 203.627 67.6619ZM201.452 71.3469C196.583 71.3469 192.637 70.4729 192.637 69.3939C192.637 68.3139 196.583 67.8519 201.452 67.8519C206.32 67.8519 210.267 68.3139 210.267 69.3939C210.267 70.4729 206.32 71.3469 201.452 71.3469Z" fill="#285DAB"/>
<path id="Vector_105" d="M213.615 69.7109C213.615 70.1569 213.253 70.5179 212.807 70.5179C212.361 70.5179 212 70.1579 212 69.7109C212 69.2649 212.361 68.9039 212.807 68.9039C213.252 68.9039 213.615 69.2649 213.615 69.7109Z" fill="#87898C"/>
</g>
</g>
<g id="Group_23">
<path id="Vector_106" d="M307.683 69.8579C307.683 72.6819 303.333 74.9709 297.966 74.9709C292.599 74.9709 288.248 72.6819 288.248 69.8579C288.248 67.0349 292.599 64.7449 297.966 64.7449C303.333 64.7449 307.683 67.0349 307.683 69.8579Z" fill="#006EB7"/>
<path id="Vector_107" d="M307.361 70.0279C307.361 72.7579 303.153 74.9709 297.964 74.9709C292.775 74.9709 288.568 72.7579 288.568 70.0279C288.568 67.2979 292.775 65.0839 297.964 65.0839C303.154 65.0839 307.361 67.2979 307.361 70.0279Z" fill="#006EB7"/>
<g id="Group_24">
<path id="Vector_108" d="M310.033 69.7399C310.033 68.2859 304.714 67.6619 298.152 67.6619C291.591 67.6619 286.271 68.2859 286.271 69.7399C286.271 71.1939 291.59 72.3739 298.152 72.3739C304.714 72.3739 310.033 71.1939 310.033 69.7399Z" fill="#285DAB"/>
<path id="Vector_109" d="M291.7 68.6739C294.473 68.4269 297.25 68.3319 300.033 68.3169C302.921 68.3009 305.823 68.3689 308.698 68.6479C306.718 67.9679 302.74 67.6629 298.152 67.6629C291.92 67.6629 286.808 68.2259 286.312 69.5289C288.031 68.9469 289.904 68.8329 291.7 68.6739Z" fill="#285DAB"/>
<path id="Vector_110" d="M298.152 67.6619C291.591 67.6619 286.271 68.2859 286.271 69.7399C286.271 71.1939 291.59 72.3739 298.152 72.3739C304.715 72.3739 310.033 71.1939 310.033 69.7399C310.033 68.2859 304.714 67.6619 298.152 67.6619ZM295.978 71.3469C291.11 71.3469 287.163 70.4729 287.163 69.3939C287.163 68.3139 291.11 67.8519 295.978 67.8519C300.847 67.8519 304.794 68.3139 304.794 69.3939C304.793 70.4729 300.846 71.3469 295.978 71.3469Z" fill="#285DAB"/>
<path id="Vector_111" d="M308.141 69.7109C308.141 70.1569 307.779 70.5179 307.333 70.5179C306.887 70.5179 306.526 70.1579 306.526 69.7109C306.526 69.2649 306.887 68.9039 307.333 68.9039C307.779 68.9039 308.141 69.2649 308.141 69.7109Z" fill="#87898C"/>
</g>
</g>
</g>
</g>
<defs>
<linearGradient id="paint0_linear_161_1633" x1="363.436" y1="95.7232" x2="409.678" y2="95.7232" gradientUnits="userSpaceOnUse">
<stop stop-color="white"/>
<stop offset="0.0795" stop-color="#DCDBDC"/>
<stop offset="0.2044" stop-color="#ABAAAA"/>
<stop offset="0.3325" stop-color="#827F80"/>
<stop offset="0.4614" stop-color="#5F5C5D"/>
<stop offset="0.5916" stop-color="#454142"/>
<stop offset="0.7234" stop-color="#322E2F"/>
<stop offset="0.8579" stop-color="#272324"/>
<stop offset="0.9993" stop-color="#231F20"/>
</linearGradient>
<linearGradient id="paint1_linear_161_1633" x1="41.331" y1="112.631" x2="118.652" y2="112.631" gradientUnits="userSpaceOnUse">
<stop stop-color="white"/>
<stop offset="0.0795" stop-color="#DCDBDC"/>
<stop offset="0.2044" stop-color="#ABAAAA"/>
<stop offset="0.3325" stop-color="#827F80"/>
<stop offset="0.4614" stop-color="#5F5C5D"/>
<stop offset="0.5916" stop-color="#454142"/>
<stop offset="0.7234" stop-color="#322E2F"/>
<stop offset="0.8579" stop-color="#272324"/>
<stop offset="0.9993" stop-color="#231F20"/>
</linearGradient>
<linearGradient id="paint2_linear_161_1633" x1="287.626" y1="112.425" x2="365.507" y2="112.425" gradientUnits="userSpaceOnUse">
<stop stop-color="white"/>
<stop offset="0.0795" stop-color="#DCDBDC"/>
<stop offset="0.2044" stop-color="#ABAAAA"/>
<stop offset="0.3325" stop-color="#827F80"/>
<stop offset="0.4614" stop-color="#5F5C5D"/>
<stop offset="0.5916" stop-color="#454142"/>
<stop offset="0.7234" stop-color="#322E2F"/>
<stop offset="0.8579" stop-color="#272324"/>
<stop offset="0.9993" stop-color="#231F20"/>
</linearGradient>
<linearGradient id="paint3_linear_161_1633" x1="80.5617" y1="38.0975" x2="80.5617" y2="144.438" gradientUnits="userSpaceOnUse">
<stop stop-color="white"/>
<stop offset="0.0795" stop-color="#DCDBDC"/>
<stop offset="0.2044" stop-color="#ABAAAA"/>
<stop offset="0.3325" stop-color="#827F80"/>
<stop offset="0.4614" stop-color="#5F5C5D"/>
<stop offset="0.5916" stop-color="#454142"/>
<stop offset="0.7234" stop-color="#322E2F"/>
<stop offset="0.8579" stop-color="#272324"/>
<stop offset="0.9993" stop-color="#231F20"/>
</linearGradient>
<linearGradient id="paint4_linear_161_1633" x1="357.998" y1="38.0935" x2="357.998" y2="144.451" gradientUnits="userSpaceOnUse">
<stop stop-color="white"/>
<stop offset="0.0795" stop-color="#DCDBDC"/>
<stop offset="0.2044" stop-color="#ABAAAA"/>
<stop offset="0.3325" stop-color="#827F80"/>
<stop offset="0.4614" stop-color="#5F5C5D"/>
<stop offset="0.5916" stop-color="#454142"/>
<stop offset="0.7234" stop-color="#322E2F"/>
<stop offset="0.8579" stop-color="#272324"/>
<stop offset="0.9993" stop-color="#231F20"/>
</linearGradient>
<linearGradient id="paint5_linear_161_1633" x1="57.8988" y1="131.398" x2="103.908" y2="131.398" gradientUnits="userSpaceOnUse">
<stop stop-color="white"/>
<stop offset="1" stop-color="#848689"/>
</linearGradient>
<linearGradient id="paint6_linear_161_1633" x1="303.831" y1="131.398" x2="349.84" y2="131.398" gradientUnits="userSpaceOnUse">
<stop stop-color="white"/>
<stop offset="1" stop-color="#848689"/>
</linearGradient>
<linearGradient id="paint7_linear_161_1633" x1="208.918" y1="-7.95219" x2="224.557" y2="45.5678" gradientUnits="userSpaceOnUse">
<stop stop-color="white"/>
<stop offset="1" stop-color="#231F20"/>
</linearGradient>
<linearGradient id="paint8_linear_161_1633" x1="222.968" y1="38.0981" x2="222.968" y2="144.436" gradientUnits="userSpaceOnUse">
<stop stop-color="white"/>
<stop offset="0.0795" stop-color="#DCDBDC"/>
<stop offset="0.2044" stop-color="#ABAAAA"/>
<stop offset="0.3325" stop-color="#827F80"/>
<stop offset="0.4614" stop-color="#5F5C5D"/>
<stop offset="0.5916" stop-color="#454142"/>
<stop offset="0.7234" stop-color="#322E2F"/>
<stop offset="0.8579" stop-color="#272324"/>
<stop offset="0.9993" stop-color="#231F20"/>
</linearGradient>
</defs>
</svg>
