<svg viewBox="0 0 126 301" fill="none" xmlns="http://www.w3.org/2000/svg">
<path d="M89.015 0H36.8578L0 34.3893V82.9829L36.8578 117.322H89.015L125.926 82.9829V34.3893L89.015 0Z" fill="#FFCC66"/>
<path d="M62.963 103.566C89.5823 103.566 111.161 83.4617 111.161 58.6612C111.161 33.8607 89.5823 13.7559 62.963 13.7559C36.3438 13.7559 14.7646 33.8607 14.7646 58.6612C14.7646 83.4617 36.3438 103.566 62.963 103.566Z" fill="white"/>
<path d="M84.4129 47.1002C84.4129 50.3896 83.8779 53.2803 82.7545 55.8221C81.6312 58.3639 80.0798 60.4572 77.94 62.2015C75.8538 63.9459 73.286 65.2417 70.2369 66.1389C67.1877 67.036 63.6036 67.4845 59.4845 67.4845H54.2421V86.1244C54.2421 86.4235 54.1351 86.6727 53.9211 86.9219C53.6526 87.2098 53.2992 87.4178 52.9047 87.5199C52.4233 87.6695 51.7813 87.7691 50.9789 87.8688C50.1765 87.9685 49.1601 88.0183 47.8763 88.0183C46.6459 88.0183 45.6295 87.9685 44.8271 87.8688C44.0247 87.7691 43.3292 87.6695 42.8478 87.5199C42.4534 87.4178 42.0999 87.2098 41.8314 86.9219C41.6401 86.6957 41.5448 86.4118 41.5639 86.1244V33.5938C41.5639 32.1983 41.9384 31.1018 42.7408 30.404C43.5864 29.6876 44.7016 29.3114 45.8435 29.3574H60.6079C62.1057 29.3574 63.4966 29.4073 64.834 29.5069C66.1713 29.6066 67.7761 29.8558 69.6484 30.2047C71.5207 30.5536 73.393 31.2015 75.3188 32.0986C77.2446 33.0455 78.9029 34.2417 80.2403 35.6372C81.5777 37.0825 82.6476 38.7272 83.343 40.6211C84.0384 42.5648 84.4129 44.7079 84.4129 47.1002ZM71.0928 47.9475C71.0928 45.9041 70.7183 44.2095 69.9159 42.9137C69.167 41.5681 68.2041 40.6211 67.0807 39.9732C65.9573 39.3253 64.7805 38.9266 63.4966 38.7771C62.2662 38.6275 60.9824 38.5279 59.645 38.5279H54.2421V58.3141H59.966C61.9987 58.3141 63.7106 58.0649 65.1014 57.5665C66.4923 57.0681 67.6156 56.3205 68.4716 55.4234C69.3275 54.5263 70.0229 53.4298 70.4509 52.134C70.8788 50.8382 71.0928 49.4427 71.0928 47.9475Z" fill="#3AB5F9"/>
<path d="M55.6875 117.322H70.238V278.303H55.6875V117.322Z" fill="#666666"/>
<path d="M99.1785 278.352H26.747C19.2578 278.352 13.2129 283.984 13.2129 290.961V300.481H112.766V290.961C112.766 283.984 106.668 278.352 99.1785 278.352Z" fill="#B88A5D"/>
</svg>
