<svg viewBox="0 0 424 421" fill="none" xmlns="http://www.w3.org/2000/svg">
<g id="5421745_2828665 1">
<g id="shadows">
<path id="shadow" d="M291.499 344.5C156.5 360.682 156 360.5 79 344.5C24 323 21.3039 299.01 88.0861 291.004C154.865 282.999 263.136 282.999 329.915 291.004C396.694 299.01 358.278 336.495 291.499 344.5Z" fill="#f7f1f1"/>
</g>
<g id="Character_2">
<g id="XMLID_1841_">
<g id="XMLID_1503_">
<g id="XMLID_1391_">
<path id="XMLID_2238_" d="M57.1667 311.61H65.1099V298.108H57.1667V311.61Z" fill="#B16668"/>
<path id="XMLID_1659_" d="M89.6553 301.385L97.5934 301.657L97.9911 287.368L89.6553 287.097V301.385Z" fill="#B16668"/>
<path id="XMLID_2235_" d="M59.5395 202.333C59.5395 209.864 59.9389 253.508 59.9389 253.508C59.7541 255.675 57.6527 259.528 57.4899 267.334C57.2533 278.655 56.8276 304.859 56.8276 304.859C56.8276 304.859 60.6835 307.096 65.6714 305.032C65.6714 305.032 74.0887 267.777 75.5116 256.572C76.7539 246.793 78.8612 220.226 78.8612 220.226L84.932 253.282C84.932 253.282 83.4676 259.115 83.9475 265.816C84.3189 270.999 89.1517 296.959 89.1517 296.959C89.1517 296.959 92.8905 299.478 98.3228 297.656C98.3228 297.656 98.7968 256.906 98.8884 252.151C98.9927 246.73 96.6116 200.095 96.6116 200.095L59.5395 202.333Z" fill="#37474F"/>
<path id="XMLID_1527_" d="M65.1098 307.717V306.59C65.5355 306.581 65.7992 307.001 65.9621 308.016C66.0782 308.742 66.1859 309.291 66.4268 310.248C66.7948 311.708 67.1264 312.602 67.8141 314.284C68.9368 317.032 69.8798 318.055 72.451 321.267C73.0607 322.029 74.4378 323.239 74.9178 324.088C75.3978 324.936 75.5674 327.297 74.7516 327.837C71.7522 329.822 67.1984 329.877 63.9769 328.94C61.4982 328.218 59.7106 326.253 59.2993 323.721C59.1814 322.995 59.2247 322.251 59.1407 321.519C58.9491 319.851 58.1053 318.326 57.1513 316.938C56.5984 316.133 55.9964 315.347 55.6258 314.445C54.9584 312.824 55.4935 311 55.92 309.385C56.2881 307.991 56.6875 306.458 57.1666 306.588C57.1683 306.758 57.1666 307.448 57.1666 307.448C57.7432 308.082 59.3383 308.712 61.1378 308.781C62.3004 308.825 65.1191 308.596 65.1098 307.717Z" fill="#263238"/>
<path id="XMLID_1526_" d="M97.6779 299.224C98.09 299.238 98.4258 299.816 99.3357 300.794C100.436 301.975 102.233 303.25 104.008 304.132C106.982 305.611 112.765 307.885 115.382 309.055C117.017 309.786 116.941 311.747 115.251 312.864C113.561 313.979 109.481 314.783 104.581 313.696C101.913 313.103 98.4386 310.655 96.2388 310.787C94.04 310.919 89.9246 310.888 88.3016 309.777C86.6785 308.666 87.3281 306.293 87.7868 304.254C88.2871 302.029 88.9138 298.559 89.6558 298.711V299.478C90.6107 300.914 95.5384 301.498 97.6363 300.442L97.6779 299.224Z" fill="#263238"/>
<path id="XMLID_1512_" d="M78.8608 220.226C78.8608 220.226 85.2098 218.45 89.9213 213.929C89.9213 213.929 87.7869 217.896 81.4405 221.589L84.5111 250.993L78.8608 220.226Z" fill="#263238"/>
</g>
<g id="XMLID_2558_">
<g id="XMLID_1668_">
<path id="XMLID_1670_" d="M91.49 184.317C86.2977 167.154 87.3305 152.623 86.3545 148.172L99.6554 166.623C99.6554 166.623 100.625 177.263 102.375 184.729C103.912 191.288 106.007 199.466 108.52 204.55C108.965 205.451 109.749 206.138 110.684 206.517C113.195 207.534 114.359 208.821 116.373 210.3C117.95 211.459 119.147 211.609 119.048 212.08C118.922 212.687 118.129 213.769 116.406 213.555C115.539 213.447 114.365 212.99 112.892 212.377C112.892 212.377 114.322 214.976 117.161 217.425C121.01 220.744 121.563 223.094 115.164 224.252C111.153 224.978 107.519 223.069 102.963 214.801C101.651 212.419 99.5909 208.657 98.419 205.418C95.3679 196.985 93.0605 189.507 91.49 184.317Z" fill="#B16668"/>
</g>
<path id="XMLID_863_" d="M85.2783 143.903C89.4081 144.629 93.4912 145.626 96.0276 149.528C98.5648 153.431 102.225 172.07 102.225 172.07C102.225 172.07 96.9019 175.779 90.7937 175.623L85.2783 143.903Z" fill="#AC3970"/>
<path id="XMLID_1_" opacity="0.1" d="M85.2783 143.903C89.4081 144.629 93.4912 145.626 96.0276 149.528C98.5648 153.431 102.225 172.07 102.225 172.07C102.225 172.07 96.9019 175.779 90.7937 175.623L85.2783 143.903Z" fill="black"/>
<path id="XMLID_1671_" d="M56.8272 150.822C54.0492 152.783 39.4254 185.585 38.8674 187.884C38.1136 190.989 38.4604 194.472 39.9893 195.594C41.5666 196.752 44.9103 195.109 46.6843 193.388C50.1119 190.063 61.9873 165.49 61.9873 165.49L56.8272 150.822Z" fill="#9A4A4D"/>
<path id="XMLID_2559_" d="M71.3567 143.943C64.616 145.555 56.0613 148.258 53.0671 154.426C50.0736 160.596 45.4512 170.594 45.4512 170.594C48.4904 173.561 52.1945 175.763 56.6125 177.144L60.0385 171.223L59.539 202.333C65.0094 206.289 85.1003 208.443 96.6127 200.095C96.6127 200.095 95.2042 162.738 95.2042 156.924C95.2042 151.11 91.9504 144.124 82.9667 143.606L71.3567 143.943Z" fill="#AC3970"/>
<path id="XMLID_2557_" opacity="0.1" d="M60.0393 171.223C60.0393 171.223 63.4186 165.399 64.1529 163.998L59.9248 178.326L60.0393 171.223Z" fill="black"/>
</g>
<g id="XMLID_1530_">
<g id="XMLID_1645_">
<path id="XMLID_2252_" d="M84.2117 128.861C90.2406 128.861 95.128 124.008 95.128 118.021C95.128 112.035 90.2406 107.182 84.2117 107.182C78.1828 107.182 73.2954 112.035 73.2954 118.021C73.2954 124.008 78.1828 128.861 84.2117 128.861Z" fill="#263238"/>
<path id="XMLID_1649_" d="M65.3408 125.728C65.3408 125.728 67.1097 133.98 67.8195 135.336C68.5293 136.692 69.9946 137.078 69.9946 137.078L69.8708 131.273L65.3408 125.728Z" fill="#263238"/>
<path id="XMLID_2120_" d="M67.5612 113.907C67.5612 113.907 65.6557 113.582 64.1709 115.09C62.7149 116.569 63.5281 121.196 65.3411 125.728L68.6729 126.108L67.5612 113.907Z" fill="#263238"/>
<path id="XMLID_1648_" d="M69.6726 126.111C69.0043 126.507 68.0512 125.232 67.2269 124.376C66.4027 123.521 63.7128 122.35 62.3713 125.157C61.0043 128.019 63.5559 131.798 65.6734 132.458C69.3223 133.596 69.871 131.271 69.871 131.271L70.1406 144.742C74.6783 150.518 87.2702 150.031 82.0237 143.997L82.0135 140.02C82.0135 140.02 85.3198 140.518 86.9327 140.27C89.6167 139.859 91.305 137.756 92.1191 134.872C93.4267 130.238 93.9228 126.497 92.8136 117.385C91.5976 107.398 79.8986 107.294 73.581 111.242C67.2634 115.19 69.6726 126.111 69.6726 126.111Z" fill="#B16668"/>
<path id="XMLID_1647_" d="M69.6726 127.227C69.3368 127.234 68.0589 125.128 67.227 124.377C66.0746 123.335 67.5611 113.907 67.5611 113.907C67.5611 113.907 66.1356 111.242 68.3548 108.816C69.9338 107.091 72.1361 104.984 79.3 105.825C84.4066 106.425 89.9644 108.006 94.4554 105.816C95.1279 108.59 94.5843 111.685 91.7935 113.877C91.7935 113.877 90.1679 114.918 85.8932 115.434C81.6184 115.951 74.959 115.335 74.0491 115.211C72.8094 115.042 72.5448 116.236 71.8766 119.495C71.2889 122.356 70.8022 127.205 69.6726 127.227Z" fill="#263238"/>
<path id="XMLID_2115_" d="M67.5677 114.64L63.5278 112.487C64.1011 111.338 65.4706 110.888 66.5857 111.482C67.7017 112.077 68.141 113.491 67.5677 114.64Z" fill="#263238"/>
<path id="XMLID_1646_" d="M82.0135 140.02C82.0135 140.02 76.0223 138.821 73.9278 137.716C72.526 136.976 71.3711 135.693 71.0327 134.872C71.0327 134.872 71.4253 136.636 72.6778 138.226C74.2093 140.17 82.0135 141.603 82.0135 141.603V140.02Z" fill="#9A4A4D"/>
</g>
<g id="XMLID_1531_">
<path id="XMLID_1644_" d="M80.5734 124.624C80.5734 125.308 80.0358 125.861 79.3726 125.859C78.7095 125.857 78.1719 125.301 78.1719 124.617C78.1719 123.933 78.7095 123.38 79.3726 123.382C80.0358 123.383 80.5734 123.94 80.5734 124.624Z" fill="#263238"/>
<path id="XMLID_1643_" d="M79.2998 120.123L76.7312 121.531C76.3521 120.798 76.6201 119.889 77.3299 119.501C78.0388 119.111 78.9207 119.391 79.2998 120.123Z" fill="#263238"/>
<path id="XMLID_2110_" d="M81.4706 132.858L84.2113 133.88C83.94 134.659 83.1064 135.064 82.35 134.781C81.5927 134.499 81.1992 133.638 81.4706 132.858Z" fill="#9A4A4D"/>
<path id="XMLID_2109_" d="M91.2797 121.115L88.9375 119.324C89.4149 118.658 90.3265 118.519 90.9735 119.014C91.6197 119.508 91.7571 120.449 91.2797 121.115Z" fill="#263238"/>
<path id="XMLID_1642_" d="M90.5578 124.284C90.5578 124.968 90.0202 125.521 89.357 125.519C88.6939 125.518 88.1562 124.962 88.1562 124.278C88.1562 123.594 88.6939 123.041 89.357 123.042C90.021 123.044 90.5578 123.601 90.5578 124.284Z" fill="#263238"/>
<path id="XMLID_1641_" d="M84.4414 123.153L84.8357 130.322L88.6059 129.047L84.4414 123.153Z" fill="#9A4A4D"/>
</g>
</g>
</g>
<g id="XMLID_1804_">
<g id="XMLID_1674_">
<path id="Vector" d="M52.4821 207.864C52.2481 207.864 52.0581 207.675 52.0581 207.443V75.0096C52.0581 74.7772 52.2481 74.5886 52.4821 74.5886C52.7162 74.5886 52.9061 74.7772 52.9061 75.0096V207.443C52.9061 207.675 52.717 207.864 52.4821 207.864Z" fill="#37474F"/>
</g>
<g id="XMLID_1801_">
<g id="XMLID_1791_">
<path id="XMLID_1803_" d="M55.7044 86.5408C55.7044 85.1885 52.8814 81.4702 52.3438 81.4702C51.8062 81.4702 49.2588 85.0993 49.2588 86.5408C49.2588 87.0157 49.5717 87.4914 50.1984 87.8534C51.4509 88.5784 53.4912 88.5784 54.7564 87.8534C55.3881 87.4905 55.7044 87.0157 55.7044 86.5408Z" fill="#AC3970"/>
<path id="XMLID_1790_" opacity="0.1" d="M55.7044 86.5408C55.7044 85.1885 52.8814 81.4702 52.3438 81.4702C51.8062 81.4702 49.2588 85.0993 49.2588 86.5408C49.2588 87.0157 49.5717 87.4914 50.1984 87.8534C51.4509 88.5784 53.4912 88.5784 54.7564 87.8534C55.3881 87.4905 55.7044 87.0157 55.7044 86.5408Z" fill="black"/>
</g>
<path id="XMLID_1673_" d="M71.2373 57.1516C71.2373 67.5124 63.0533 80.5929 52.3447 83.0709C41.576 80.0809 33.4521 67.5124 33.4521 57.1516C33.4521 46.7916 40.1734 37.1162 52.3447 37.1162C64.5152 37.1171 71.2373 46.7916 71.2373 57.1516Z" fill="#AC3970"/>
<path id="XMLID_2083_" opacity="0.05" d="M34.1482 51.4715C33.6869 53.302 33.4512 55.215 33.4512 57.1516C33.4512 67.5124 41.575 80.0801 52.3438 83.0709C61.2461 81.0113 68.3981 71.6247 70.5597 62.564C70.5597 62.564 67.7485 72.5055 55.3576 73.3003C42.9666 74.0952 32.9712 60.0456 34.1482 51.4715Z" fill="black"/>
</g>
</g>
<path id="XMLID_1672_" d="M40.4089 195.78C38.1473 195.144 35.8382 188.442 36.0078 184.143C36.1774 179.844 41.9896 161.28 42.8147 157.704C43.7229 153.764 43.6593 150.769 44.4675 148.72C45.6572 145.703 49.5241 144.044 49.5241 144.044C49.5241 144.044 54.5901 141.626 56.4438 141.265C58.2975 140.904 58.9869 142.075 58.7868 143.057C58.5867 144.04 57.9023 146.39 57.7667 147.735C57.631 149.079 57.2791 150.995 56.3174 152.52C55.3558 154.044 51.4491 157.688 51.2973 159.716C51.1463 161.746 50.0159 172.765 49.3681 180.779C48.8381 187.327 48.1741 190.052 46.7418 191.77C45.3087 193.487 42.1643 196.274 40.4089 195.78Z" fill="#B16668"/>
</g>
</g>
<g id="Character_1">
<g id="XMLID_1840_">
<g id="XMLID_2342_">
<g id="XMLID_1392_">
<path id="XMLID_1793_" d="M358.762 290.525H350.709V304.212H358.762V290.525Z" fill="#FFA8A7"/>
<path id="XMLID_1792_" d="M330.843 289.795L322.795 290.07L322.393 275.585L330.843 275.31V289.795Z" fill="#FFA8A7"/>
<path id="XMLID_1396_" d="M356.179 188.648C356.179 196.284 357.379 242.153 357.379 242.153C357.566 244.35 359.696 248.256 359.861 256.169C360.101 267.645 359.105 297.369 359.105 297.369C359.105 297.369 355.197 299.637 350.14 297.545C350.14 297.545 343.035 256.618 341.591 245.259C340.332 235.346 338.196 208.414 338.196 208.414L333.831 240.777C333.831 240.777 335.315 246.69 334.829 253.484C334.453 258.738 331.353 285.309 331.353 285.309C331.353 285.309 327.562 287.863 322.055 286.016C322.055 286.016 317.986 245.599 317.893 240.778C317.787 235.283 320.571 179.18 320.571 179.18L356.179 188.648Z" fill="#AC3970"/>
<g id="XMLID_1389_">
<g id="XMLID_1837_">
<path id="XMLID_1839_" d="M324.597 172.876C329.79 155.713 328.757 141.181 329.733 136.731L316.432 155.182C316.432 155.182 315.463 165.822 313.712 173.288C312.175 179.847 310.08 188.024 307.568 193.108C307.123 194.009 306.338 194.696 305.403 195.076C302.893 196.093 301.728 197.38 299.714 198.859C298.137 200.018 296.94 200.168 297.039 200.639C297.165 201.246 297.958 202.328 299.681 202.114C300.548 202.006 301.723 201.549 303.196 200.936C303.196 200.936 301.766 203.535 298.926 205.984C295.078 209.303 294.524 211.653 300.924 212.811C304.934 213.537 308.568 211.628 313.123 203.36C314.436 200.978 316.496 197.216 317.667 193.977C320.719 185.544 323.027 178.066 324.597 172.876Z" fill="#FFA8A7"/>
</g>
<path id="XMLID_1836_" d="M330.809 132.462C326.679 133.188 322.596 134.184 320.059 138.087C317.522 141.99 313.862 160.629 313.862 160.629C313.862 160.629 319.185 164.338 325.293 164.182L330.809 132.462Z" fill="#E0E0E0"/>
<path id="XMLID_1835_" d="M359.26 139.381C362.038 141.341 376.662 174.144 377.22 176.443C377.974 179.548 377.627 183.031 376.098 184.153C374.521 185.311 371.177 183.668 369.403 181.947C365.975 178.622 354.1 154.049 354.1 154.049L359.26 139.381Z" fill="#F28F8F"/>
<path id="XMLID_1399_" d="M344.862 132.457C351.603 134.068 360.158 136.771 363.152 142.94C366.146 149.109 370.768 159.108 370.768 159.108C367.729 162.074 364.024 164.277 359.606 165.658L356.18 159.738L356.682 190.847C351.211 194.803 331.12 196.957 319.608 188.609C319.608 188.609 321.016 151.253 321.016 145.439C321.016 139.624 324.27 132.639 333.254 132.12L344.862 132.457Z" fill="#F0F0F0"/>
<path id="XMLID_1397_" d="M356.18 159.737C356.18 159.737 352.8 153.913 352.066 152.511L356.294 166.84L356.18 159.737Z" fill="#E0E0E0"/>
</g>
<path id="XMLID_1395_" d="M350.709 300.266V299.122C349.939 299.456 348.148 306.237 344.954 309.13C342.414 311.431 338.949 314.087 338.068 316.652C337.151 319.319 342.893 320.791 345.266 320.374C348.023 319.889 352.802 317.962 354.001 316.175C355.201 314.388 355.762 311.752 356.737 310.442C357.712 309.133 359.958 307.67 360.486 306.155C360.776 305.322 360.431 303.498 360.024 301.957C359.651 300.543 359.247 298.989 358.76 299.122C358.758 299.295 358.76 299.994 358.76 299.994C358.176 300.637 356.559 301.275 354.735 301.345C353.557 301.39 350.699 301.158 350.709 300.266Z" fill="#263238"/>
<path id="XMLID_1394_" d="M322.71 287.604C322.291 287.619 321.951 288.205 321.029 289.196C319.915 290.394 318.091 291.686 316.292 292.58C313.276 294.079 307.415 296.384 304.762 297.57C303.104 298.311 303.182 300.299 304.896 301.431C306.609 302.562 310.745 303.377 315.712 302.275C318.418 301.673 321.94 299.193 324.169 299.327C326.398 299.461 330.57 299.429 332.215 298.303C333.86 297.177 333.202 294.772 332.737 292.704C332.23 290.449 331.595 286.931 330.843 287.085V287.862C329.874 289.318 324.879 289.91 322.753 288.839L322.71 287.604Z" fill="#263238"/>
<path id="XMLID_1393_" opacity="0.1" d="M338.196 208.414C338.196 208.414 331.76 206.614 326.983 202.031C326.983 202.031 329.146 206.053 335.581 209.797L334.204 238.008L338.196 208.414Z" fill="black"/>
</g>
<g id="XMLID_2522_">
<g id="XMLID_2538_">
<g id="XMLID_2555_">
<path id="XMLID_2556_" d="M347.392 102.698C347.392 102.698 349.255 102.381 350.707 103.856C352.131 105.301 351.835 107.977 350.704 114.126L346.304 114.628L347.392 102.698Z" fill="#263238"/>
</g>
<g id="XMLID_2553_">
<path id="XMLID_2554_" d="M321.736 100.919C321.736 100.919 319.959 100.92 318.983 100.364C317.632 99.5935 317.28 101.117 318.02 102.442C318.76 103.766 320.143 105.492 323.126 105.818C323.166 105.628 324.389 102.406 324.389 102.406L321.736 100.919Z" fill="#263238"/>
</g>
<g id="XMLID_2549_">
<path id="XMLID_2552_" d="M345.328 114.63C345.982 115.017 346.914 113.771 347.719 112.934C348.525 112.097 351.155 110.954 352.467 113.699C353.804 116.496 350.769 120.216 348.987 121.445C346.87 122.906 345.329 121.76 345.329 121.76L344.863 132.457C344.863 132.457 342.526 138.133 336.199 138.985C329.872 139.837 331.175 134.658 333.253 132.119L333.264 128.229C333.264 128.229 329.999 128.869 328.454 128.474C326.818 128.056 324.64 126.483 323.769 123.685C322.675 120.171 321.372 114.136 322.703 106.098C324.311 96.3921 335.331 96.2313 341.509 100.092C347.683 103.952 345.328 114.63 345.328 114.63Z" fill="#FFA8A7"/>
</g>
<g id="XMLID_2546_">
<path id="XMLID_2548_" d="M345.328 115.721C345.657 115.727 346.907 113.668 347.72 112.934C348.847 111.916 347.393 102.697 347.393 102.697C347.393 102.697 348.533 99.2002 346.306 96.8814C344.079 94.5625 339.764 94.954 336.608 94.8412C333.325 94.7242 329.81 94.5271 325.328 92.5939C320.846 90.6607 320.511 90.4325 319.955 92.3868C319.398 94.341 319.19 98.8163 321.863 101.815L324.089 102.627C324.089 102.627 325.29 103.686 329.47 104.191C333.65 104.696 340.161 104.094 341.05 103.973C342.262 103.808 342.521 104.975 343.175 108.161C343.748 110.959 344.224 115.7 345.328 115.721Z" fill="#263238"/>
</g>
<g id="XMLID_2543_">
<path id="XMLID_2544_" d="M347.387 103.414L351.337 101.309C350.776 100.185 349.437 99.7458 348.347 100.328C347.255 100.909 346.825 102.29 347.387 103.414Z" fill="#263238"/>
</g>
<g id="XMLID_2539_">
<path id="XMLID_2541_" d="M333.262 128.229C333.262 128.229 339.12 127.058 341.168 125.977C342.539 125.253 343.667 124 343.999 123.196C343.999 123.196 343.615 124.921 342.39 126.476C340.893 128.377 333.262 129.777 333.262 129.777V128.229Z" fill="#F28F8F"/>
</g>
</g>
<g id="XMLID_2525_">
<g id="XMLID_2536_">
<path id="XMLID_2537_" d="M334.665 112.984C334.665 113.652 335.19 114.193 335.838 114.191C336.487 114.19 337.012 113.646 337.012 112.977C337.012 112.308 336.486 111.767 335.838 111.769C335.19 111.771 334.665 112.314 334.665 112.984Z" fill="#263238"/>
</g>
<g id="XMLID_2534_">
<path id="XMLID_2535_" d="M336.123 108.158L338.633 109.534C339.003 108.818 338.742 107.929 338.048 107.549C337.356 107.169 336.493 107.442 336.123 108.158Z" fill="#263238"/>
</g>
<g id="XMLID_2532_">
<path id="XMLID_2533_" d="M334.758 121.079L332.078 122.077C332.344 122.84 333.158 123.235 333.898 122.959C334.638 122.684 335.023 121.842 334.758 121.079Z" fill="#F28F8F"/>
</g>
<g id="XMLID_2530_">
<path id="XMLID_2531_" d="M323.658 109.821L325.947 108.069C325.48 107.418 324.589 107.283 323.957 107.766C323.324 108.249 323.19 109.17 323.658 109.821Z" fill="#263238"/>
</g>
<g id="XMLID_2528_">
<path id="XMLID_2529_" d="M324.968 112.651C324.968 113.32 325.494 113.86 326.141 113.859C326.789 113.857 327.315 113.313 327.315 112.644C327.315 111.976 326.789 111.435 326.141 111.437C325.493 111.439 324.968 111.983 324.968 112.651Z" fill="#263238"/>
</g>
<g id="XMLID_2526_">
<path id="XMLID_2527_" d="M331.386 111.738L331.001 118.748L327.315 117.5L331.386 111.738Z" fill="#F28F8F"/>
</g>
</g>
</g>
</g>
<g id="XMLID_1828_">
<g id="XMLID_1834_">
<path id="Vector_2" d="M363.605 196.423C363.371 196.423 363.181 196.234 363.181 196.002V63.5685C363.181 63.3361 363.371 63.1475 363.605 63.1475C363.839 63.1475 364.029 63.3361 364.029 63.5685V196.002C364.029 196.235 363.84 196.423 363.605 196.423Z" fill="#37474F"/>
</g>
<g id="XMLID_1829_">
<g id="XMLID_1831_">
<path id="XMLID_1833_" d="M360.383 75.0997C360.383 73.7474 363.206 70.0291 363.743 70.0291C364.281 70.0291 366.828 73.6582 366.828 75.0997C366.828 75.5746 366.516 76.0494 365.889 76.4123C364.636 77.1373 362.596 77.1373 361.331 76.4123C360.699 76.0494 360.383 75.5746 360.383 75.0997Z" fill="#AC3970"/>
<path id="XMLID_1832_" opacity="0.1" d="M360.383 75.0997C360.383 73.7474 363.206 70.0291 363.743 70.0291C364.281 70.0291 366.828 73.6582 366.828 75.0997C366.828 75.5746 366.516 76.0494 365.889 76.4123C364.636 77.1373 362.596 77.1373 361.331 76.4123C360.699 76.0494 360.383 75.5746 360.383 75.0997Z" fill="black"/>
</g>
<path id="XMLID_1830_" d="M344.85 45.7105C344.85 56.0713 353.034 69.1518 363.743 71.6298C374.511 68.6398 382.635 56.0713 382.635 45.7105C382.635 35.3497 375.914 25.6751 363.743 25.6751C351.572 25.676 344.85 35.3505 344.85 45.7105Z" fill="#AC3970"/>
<path id="XMLID_2090_" opacity="0.05" d="M381.82 51.1229C381.82 51.1229 379.009 61.0644 366.618 61.8592C354.678 62.6254 344.967 49.6098 345.328 40.9894C345.012 42.5244 344.85 44.109 344.85 45.7105C344.85 56.0713 353.034 69.1518 363.743 71.6298C372.668 69.1518 379.771 60.0952 381.943 51.1683L381.82 51.1229Z" fill="black"/>
</g>
</g>
<path id="XMLID_1805_" d="M375.678 184.339C377.94 183.702 380.249 177.001 380.079 172.701C379.91 168.402 374.098 149.838 373.273 146.262C372.364 142.322 372.428 139.327 371.62 137.278C370.43 134.261 366.563 132.602 366.563 132.602C366.563 132.602 361.497 130.184 359.644 129.823C357.79 129.462 357.1 130.633 357.3 131.616C357.501 132.598 358.185 134.948 358.321 136.293C358.456 137.638 358.808 139.553 359.77 141.078C360.731 142.603 364.638 146.246 364.79 148.275C364.941 150.305 366.071 161.324 366.719 169.338C367.249 175.886 367.913 178.611 369.345 180.329C370.779 182.047 373.924 184.833 375.678 184.339Z" fill="#FFA8A7"/>
</g>
</g>
<g id="Characters_with_Banner">
<g id="XMLID_2027_">
<g id="XMLID_2498_">
<path id="XMLID_1802_" d="M167.59 117.628C169.834 117.306 171.735 117.628 175.662 122.952C179.173 127.713 186.171 135.713 186.171 135.713C186.171 135.713 192.481 119.25 192.31 117.027C192.14 114.804 190.727 113.454 189.806 109.373C188.885 105.292 188.633 104.523 187.941 103.337C187.249 102.151 189.627 101.863 190.597 103.337C191.567 104.811 191.675 106.897 192.342 106.519C193.008 106.141 193.472 101.676 192.905 98.4559C192.338 95.2361 193.811 94.5162 194.481 95.5409C195.151 96.5656 195.285 97.4354 195.285 97.4354C195.285 97.4354 197.431 96.8738 199.104 98.7144C200.777 100.555 202.204 103.372 202.203 108.149C202.202 112.926 199.967 115.474 199.636 117.628C199.306 119.781 195.406 139.764 192.617 146.514C190.865 150.756 188.455 152.009 185.501 149.54C181.525 146.216 170.608 132.894 170.608 132.894L167.59 117.628Z" fill="#FFA8A7"/>
<path id="XMLID_830_" d="M167.59 117.628C169.62 117.032 171.799 117.502 173.882 119.947C175.966 122.392 183.448 131.834 183.448 131.834C183.448 131.834 183.227 136.663 176.945 141.141L169.779 133.481L167.59 117.628Z" fill="#AC3970"/>
<g id="XMLID_2926_">
<g id="XMLID_1500_">
<path id="XMLID_1502_" d="M178.212 273.534L178.144 272.41C178.67 273.702 181.084 279.256 184.397 281.914C187.031 284.028 190.595 286.437 191.614 288.907C192.673 291.476 187.084 292.693 184.727 292.422C181.987 292.106 178.387 290.787 176.338 288.572C174.896 287.014 173.924 285.124 172.889 283.894C171.852 282.663 169.556 281.357 168.948 279.898C168.614 279.096 168.844 277.282 169.152 275.744C169.436 274.332 169.916 272.652 170.402 272.754C170.414 272.923 170.279 273.739 170.279 273.739C170.893 274.338 172.521 274.871 174.318 274.832C175.478 274.806 178.274 274.411 178.212 273.534Z" fill="#263238"/>
</g>
<g id="XMLID_1497_">
<path id="XMLID_1499_" d="M186.777 283.769C185.962 283.128 185.142 282.504 184.396 281.906C182.081 280.048 180.205 276.776 179.105 274.533C179.1 274.521 179.093 274.508 179.087 274.495C178.201 272.672 177.98 270.972 178.024 268.691L178.125 266.038L169.662 266.208L170.279 273.729V273.73L170.29 273.924L170.332 273.942C170.811 275.553 174.707 279.683 176.942 282.393C178.441 284.211 181.215 286.471 184.383 286.7C187.382 286.919 188.847 285.896 186.777 283.769Z" fill="#FFA8A7"/>
</g>
<path id="XMLID_704_" d="M130.861 274.458C130.456 274.223 129.786 275.594 129.079 276.64C128.374 277.685 127.944 279.596 128.051 280.923C128.158 282.25 128.264 283.151 127.785 285.946C127.307 288.74 126.485 291.949 129.322 294.523C131.751 296.728 137.176 297.757 138.908 296.228C139.873 295.375 139.995 294.465 139.969 293.855C139.853 293.035 138.991 291.256 138.542 290.34C136.954 287.094 136.75 286.432 136.75 286.432L130.861 274.458Z" fill="#263238"/>
<path id="XMLID_10_" d="M138.513 269.757C138.136 269.447 137.331 279.786 137.103 282.247C136.865 284.812 137.31 285.996 137.714 288.617C137.869 289.198 137.916 289.988 137.584 290.491C137.212 291.056 136.45 291.324 135.77 291.329C133.979 291.345 132.547 290.678 131.038 288.987C130.296 288.154 130.245 285.908 130.284 285.098C130.353 283.693 130.49 282.43 130.359 281.029C130.225 279.584 129.804 277.898 129.989 276.847C130.173 275.8 130.437 275.425 130.861 274.458C131.546 272.899 132.005 268.641 132.005 268.641C132.005 268.641 138.509 269.756 138.513 269.757Z" fill="#FFA8A7"/>
<path id="XMLID_2657_" d="M142.068 160.143C137.664 165.755 136.87 171.552 137.832 187.963C138.793 204.373 137.4 217.713 137.157 218.633C136.915 219.553 134.123 228.591 132.809 234.681C131.27 241.81 131.059 271.175 131.059 271.175C131.059 271.175 134.19 272.88 139.02 271.713C139.02 271.713 150.693 225.829 151.929 222.135C153.164 218.44 162.536 180.316 162.536 180.316L161.344 158.367L142.068 160.143Z" fill="#37474F"/>
<path id="XMLID_2654_" d="M175.72 179.022C175.049 171.446 173.416 158.317 173.416 158.317L153.904 157.18C150.741 162.069 152.117 170.206 152.977 177.554L164.135 220.937C163.909 223.012 161.982 227.418 164.135 238.585C166.539 251.057 169.481 267.557 169.481 267.557C169.481 267.557 174.059 269.408 178.267 267.648C178.267 267.648 179.881 228.142 178.848 217.352C177.731 205.677 176.179 184.206 175.72 179.022Z" fill="#37474F"/>
<path id="XMLID_2499_" d="M159.115 197.421L162.3 181.507C162.3 181.507 167.054 179.867 170.261 177.475C170.261 177.475 167.637 180.838 164.688 182.575L159.115 197.421Z" fill="#263238"/>
</g>
<path id="XMLID_2668_" d="M143.247 121.598C141.057 122.86 137.44 124.004 135.926 128.232C133.868 134.148 128.397 149.433 126.295 154.928H136.405L143.394 140.697C148.809 136.082 148.081 123.259 143.247 121.598Z" fill="#FFA8A7"/>
<g id="XMLID_2651_">
<path id="XMLID_2652_" d="M172.18 146.008C172.661 150.43 174.457 166.783 174.457 166.783C159.748 174.576 141.505 169.412 138.713 166.2C141.242 157.935 143.964 153.23 146.045 151.03L143.396 140.697C143.396 140.697 149.56 133.417 143.248 121.598L151.447 118.922L162.669 117.959L167.591 117.628C169.346 119.258 172.111 125.113 173.905 129.671C175.06 132.608 176.311 137.302 172.18 146.008Z" fill="#F5F5F5"/>
</g>
<g id="XMLID_2925_">
<path id="XMLID_1479_" d="M143.247 121.598C138.413 122.545 136.24 124.902 134.307 130.142C132.218 135.809 129.72 141.94 129.72 141.94C129.72 141.94 133.846 148.466 142.116 147.032L145.249 138.368C145.249 138.368 149.439 130.715 143.247 121.598Z" fill="#AC3970"/>
</g>
<path id="XMLID_1400_" d="M144.728 145.898C144.858 146.406 148.301 150.924 149.989 151.995C151.679 153.066 146.997 154.535 146.336 157.18C145.002 162.524 153.327 169.351 163.675 170.329C151.981 172.235 140.844 168.653 138.712 166.2C141.241 157.935 143.962 153.23 146.043 151.03L144.728 145.898Z" fill="#E6E6E6"/>
<g id="XMLID_829_">
<path id="XMLID_2656_" d="M175.662 116.592H159.947C149.326 116.592 140.716 108.043 140.716 97.4969C140.716 87.9149 148.539 80.1475 158.189 80.1475C167.839 80.1475 175.662 87.9149 175.662 97.4969V116.592Z" fill="#263238"/>
<g id="XMLID_2649_">
<path id="XMLID_2650_" d="M169.422 87.7036C171.267 88.7864 173.548 93.3955 173.323 103.058C173.132 111.248 170.46 113.271 169.117 113.854C167.775 114.437 165.186 114.082 162.669 113.666V118.581C162.669 118.581 162.432 120.354 161.104 121.18C159.053 122.455 156.624 121.969 155.262 121.482C152.254 120.407 151.653 118.938 151.653 118.938L151.71 107.637C151.71 107.637 150.229 109.066 147.717 106.885C145.644 105.085 144.945 102.05 146.561 100.421C148.177 98.7927 151.163 99.2356 152.309 101.558C152.309 101.558 153.785 101.677 155.262 98.9561C155.262 98.9561 155.213 91.5599 156.87 90.5958C162.134 87.5369 165.883 87.7036 169.422 87.7036Z" fill="#FFA8A7"/>
</g>
<g id="XMLID_2647_">
<path id="XMLID_2648_" d="M162.667 100.482C162.697 101.072 162.258 101.572 161.685 101.599C161.113 101.626 160.625 101.17 160.596 100.579C160.566 99.9892 161.005 99.489 161.578 99.4621C162.15 99.4352 162.638 99.8915 162.667 100.482Z" fill="#263238"/>
</g>
<g id="XMLID_2638_" opacity="0.5">
<path id="XMLID_2639_" d="M164.392 107.943L166.801 108.706C166.601 109.39 165.9 109.774 165.235 109.564C164.568 109.353 164.192 108.628 164.392 107.943Z" fill="#F28F8F"/>
</g>
<g id="XMLID_2636_">
<path id="XMLID_2637_" d="M172.043 97.2788L169.945 95.8347C170.329 95.2395 171.109 95.0812 171.688 95.4803C172.267 95.8785 172.427 96.6843 172.043 97.2788Z" fill="#263238"/>
</g>
<g id="XMLID_2742_">
<path id="XMLID_2743_" d="M161.221 96.8654L158.837 97.7739C158.558 97.1247 158.865 96.3947 159.523 96.1438C160.181 95.8937 160.941 96.217 161.221 96.8654Z" fill="#263238"/>
</g>
<g id="XMLID_2634_">
<path id="XMLID_2635_" d="M171.472 100.256C171.502 100.846 171.062 101.347 170.49 101.373C169.918 101.4 169.43 100.944 169.4 100.354C169.371 99.7635 169.81 99.2634 170.381 99.2365C170.954 99.2095 171.442 99.6667 171.472 100.256Z" fill="#263238"/>
</g>
<g id="XMLID_2563_" opacity="0.5">
<path id="XMLID_2633_" d="M166.495 99.6667L166.66 105.866L169.946 104.855L166.495 99.6667Z" fill="#F28F8F"/>
</g>
<g id="XMLID_2521_" opacity="0.5">
<path id="XMLID_2562_" d="M162.669 113.666C160.017 113.321 154.561 111.764 153.71 109.622C153.71 109.622 153.993 110.968 155.623 112.355C157.254 113.742 162.669 115.305 162.669 115.305V113.666Z" fill="#F28F8F"/>
</g>
<path id="XMLID_2520_" d="M155.66 81.0745L155.256 76.526C156.543 76.3711 157.676 77.2636 157.787 78.5199C157.899 79.7761 156.946 80.9204 155.66 81.0745Z" fill="#263238"/>
<path id="XMLID_2519_" d="M155.414 81.5342L151.705 78.8356C152.436 77.7739 153.859 77.517 154.883 78.2622C155.909 79.0074 156.146 80.4725 155.414 81.5342Z" fill="#263238"/>
<path id="XMLID_2497_" d="M152.309 101.558V105.866C153.939 105.866 155.261 104.553 155.261 102.934V98.9561L152.309 101.558Z" fill="#263238"/>
<path id="XMLID_2727_" d="M164.116 81.1722C172.218 81.1722 178.785 87.6935 178.785 95.7371V97.6257H171.607C168.265 97.6257 165.438 95.1738 164.987 91.8858L164.724 97.6257C161.969 97.6257 159.671 95.535 159.432 92.8103L159.35 91.8748C159.089 95.1224 156.357 97.6257 153.076 97.6257H152.44L151.705 87.3348L164.116 81.1722Z" fill="#263238"/>
</g>
</g>
<g id="XMLID_2005_">
<g id="XMLID_828_">
<path id="XMLID_2262_" d="M263.829 284.867V283.741C263.382 285.062 261.307 290.749 258.159 293.599C255.657 295.864 252.244 298.481 251.376 301.007C250.473 303.634 256.125 304.518 258.462 304.106C261.178 303.629 264.692 302.099 266.605 299.765C267.95 298.125 268.805 296.18 269.766 294.89C270.726 293.6 272.939 292.16 273.459 290.667C273.744 289.847 273.406 288.051 273.005 286.533C272.637 285.14 272.238 283.609 271.76 283.74C271.758 283.91 271.76 284.599 271.76 284.599C271.184 285.232 269.591 285.861 267.795 285.93C266.634 285.974 263.818 285.746 263.829 284.867Z" fill="#263238"/>
<path id="XMLID_2260_" d="M255.895 295.593C256.671 294.905 257.452 294.233 258.16 293.592C260.358 291.6 262.034 288.223 262.997 285.919C263.546 284.603 263.829 283.199 263.829 281.774V277.286H271.761V284.592V284.593V284.787L271.721 284.807C271.339 286.444 267.7 290.797 265.631 293.636C264.246 295.539 261.611 297.959 258.464 298.377C255.48 298.772 253.956 297.838 255.895 295.593Z" fill="#B16668"/>
<path id="XMLID_2632_" d="M232.89 277.104V275.977C232.443 277.298 230.367 282.986 227.22 285.835C224.719 288.101 221.305 290.718 220.437 293.244C219.534 295.871 225.187 296.754 227.524 296.343C230.24 295.865 233.753 294.335 235.666 292.002C237.011 290.362 237.868 288.417 238.828 287.127C239.788 285.837 242.001 284.396 242.521 282.904C242.806 282.083 242.467 280.287 242.066 278.769C241.698 277.377 241.3 275.846 240.821 275.976C240.821 276.147 240.821 276.835 240.821 276.835C240.246 277.468 238.652 278.097 236.856 278.166C235.696 278.211 232.881 277.982 232.89 277.104Z" fill="#263238"/>
<path id="XMLID_2265_" d="M224.956 287.829C225.732 287.141 226.513 286.469 227.221 285.829C229.42 283.836 231.096 280.46 232.058 278.156C232.607 276.839 232.89 275.436 232.89 274.011V269.522H240.821V276.829V276.83V277.025L240.781 277.045C240.4 278.682 236.76 283.035 234.692 285.873C233.306 287.776 230.672 290.197 227.525 290.615C224.542 291.009 223.017 290.075 224.956 287.829Z" fill="#B16668"/>
<path id="XMLID_2258_" d="M270.182 162.472C276.33 175.808 269.959 222.783 269.959 222.783C270.144 224.947 272.637 229.205 273.564 238.73C274.662 249.984 271.843 278.241 271.843 278.241C271.843 278.241 268.17 280.625 263.827 278.557C263.827 278.557 256.268 236 254.847 224.811C253.607 215.046 251.225 193.575 251.225 193.575L244.458 224.758C244.458 224.758 246.195 230.229 246.602 234.396C247.244 240.978 240.822 271.621 240.822 271.621C240.822 271.621 238.086 272.618 232.891 271.858C232.891 271.858 230.619 231.194 230.02 223.266C229.015 209.95 232.576 168.405 235.036 160.523L270.182 162.472Z" fill="#37474F"/>
<path id="XMLID_2256_" d="M251.226 193.574L249.23 181.188C249.23 181.188 240.784 179.451 236.954 175.875C236.954 175.875 240.972 180.839 246.941 182.464L249.183 192L245.264 220.873L251.226 193.574Z" fill="#263238"/>
</g>
<g id="XMLID_2241_">
<path id="XMLID_860_" d="M247.087 115.788C243.379 115.273 239.619 116.418 236.953 119.946C234.287 123.474 224.01 153.151 224.01 153.151H233.259L245.934 128.28L247.087 115.788Z" fill="#B16668"/>
<path id="XMLID_2248_" d="M259.335 116.144C267.218 116.683 267.771 120.462 269.744 124.597C271.246 127.744 271.263 131.394 270.116 134.685L264.623 150.465C264.623 150.465 267.195 156.639 270.182 162.471C256.396 170.112 239.181 166.095 235.036 160.521C234.86 159.338 235.926 150.092 236.581 144.054C234.154 138.006 233.513 134.172 234.537 130.174C236.438 122.754 243.821 115.523 247.087 115.787L259.335 116.144Z" fill="#F5F5F5"/>
<path id="XMLID_1956_" d="M255.809 163.953C260.337 162.888 263.21 158.34 262.014 153.874C261.969 153.705 261.921 153.559 261.873 153.444C260.987 151.328 259.081 151.605 259.081 151.605C260.868 150.429 262.109 148.594 262.528 146.505L264.201 138.161C264.201 138.161 261.093 128.359 261.408 125.001L269.319 125.455C269.319 125.455 269.717 125.729 270.343 126.161C271.206 128.917 271.077 131.925 270.116 134.685L264.623 150.465C264.623 150.465 267.195 156.639 270.182 162.471C260.022 168.102 248.006 167.399 240.725 164.409C246.476 165.296 251.804 164.894 255.809 163.953Z" fill="#E6E6E6"/>
</g>
<g id="XMLID_2340_">
<path id="XMLID_2341_" d="M288.36 155.271C288.36 155.271 280.536 139.98 275.366 128.281C271.63 119.826 270.794 117.92 264.851 117.006L262.75 116.683C259.933 125.873 261.874 130.036 265.585 136.329L278.466 160.581C281.384 160.007 288.423 156.146 288.36 155.271Z" fill="#B16668"/>
</g>
<g id="XMLID_827_">
<g id="XMLID_2338_">
<path id="XMLID_2339_" d="M250.509 109.657H256.063C264.274 109.657 270.929 103.048 270.929 94.8968V92.4196C270.929 84.2202 264.234 77.5726 255.976 77.5726H250.596C242.339 77.5726 235.644 84.2202 235.644 92.4196V94.8968C235.644 103.048 242.299 109.657 250.509 109.657Z" fill="#263238"/>
</g>
<g id="XMLID_2163_">
<path id="XMLID_2164_" d="M241.439 84.6564C239.575 85.7501 237.272 90.4039 237.499 100.16C237.691 108.429 240.391 110.471 241.747 111.061C243.102 111.649 245.716 111.291 248.258 110.87V115.833C248.258 115.833 244.745 119.884 244.966 122.159C245.188 124.435 250.038 124.972 253.324 122.749C256.611 120.526 258.718 117.142 258.718 117.142V105.146C258.718 105.146 260.433 107.422 263.239 105.571C266.045 103.72 266.152 99.1405 264.52 97.496C262.889 95.8516 259.373 96.3728 258.718 98.6445C258.718 98.6445 254.665 98.791 249.268 95.8474C243.872 92.9046 241.797 87.8627 241.439 84.6564Z" fill="#B16668"/>
</g>
<g id="XMLID_2154_">
<path id="XMLID_2162_" d="M247.73 98.0829C247.699 98.679 248.144 99.1842 248.721 99.2112C249.299 99.2381 249.791 98.7775 249.822 98.1814C249.853 97.5853 249.408 97.0801 248.831 97.0531C248.252 97.0262 247.76 97.4868 247.73 98.0829Z" fill="#263238"/>
</g>
<g id="XMLID_2152_">
<path id="XMLID_2153_" d="M246.518 105.093L244.085 105.863C244.287 106.554 244.995 106.942 245.667 106.729C246.339 106.516 246.72 105.784 246.518 105.093Z" fill="#9A4A4D"/>
</g>
<g id="XMLID_2147_">
<path id="XMLID_2151_" d="M239.143 94.89L241.262 93.4317C240.876 92.8305 240.088 92.6705 239.503 93.073C238.918 93.4763 238.756 94.2889 239.143 94.89Z" fill="#263238"/>
</g>
<g id="XMLID_2144_">
<path id="XMLID_2145_" d="M239.632 97.331C239.601 97.9271 240.046 98.4315 240.623 98.4593C241.201 98.4862 241.693 98.0256 241.724 97.4295C241.754 96.8334 241.31 96.329 240.733 96.3012C240.155 96.2743 239.662 96.7349 239.632 97.331Z" fill="#263238"/>
</g>
<g id="XMLID_2142_">
<path id="XMLID_2143_" d="M244.747 96.7357L244.58 102.995L241.262 101.975L244.747 96.7357Z" fill="#9A4A4D"/>
</g>
<g id="XMLID_2006_">
<path id="XMLID_2141_" d="M248.257 110.87C250.935 110.522 256.446 108.95 257.304 106.787C257.304 106.787 257.018 108.146 255.372 109.548C253.726 110.949 248.257 112.527 248.257 112.527V110.87Z" fill="#9A4A4D"/>
</g>
<path id="XMLID_1937_" d="M268.728 79.4477C265.289 80.8758 266.064 83.8068 267.504 87.2211C268.943 90.6354 270.499 93.2414 273.938 91.8133C277.377 90.3845 278.999 86.4591 277.56 83.0439C276.121 79.6296 272.167 78.0197 268.728 79.4477Z" fill="#263238"/>
<path id="XMLID_2631_" d="M265.701 82.5L264.497 76.798C266.103 76.4081 267.674 77.3697 268.006 78.9442C268.339 80.5196 267.307 82.111 265.701 82.5Z" fill="#263238"/>
</g>
</g>
<g id="XMLID_858_">
<path id="XMLID_1798_" d="M293.96 153.151H114.226V194.01H293.96V153.151Z" fill="#AC3970"/>
<g id="XMLID_1980_">
<path id="XMLID_2001_" d="M138.677 183.006C138.548 182.909 138.439 182.733 138.354 182.477L133.956 168.414C133.935 168.35 133.924 168.264 133.924 168.157C133.924 167.879 134.096 167.74 134.441 167.74H136.931C137.189 167.74 137.372 167.783 137.48 167.868C137.588 167.954 137.664 168.104 137.707 168.318L140.52 178.142L143.721 169.698C143.806 169.485 143.904 169.33 144.012 169.233C144.119 169.137 144.291 169.089 144.529 169.089H145.92C146.156 169.089 146.324 169.132 146.421 169.217C146.518 169.303 146.609 169.463 146.696 169.698L149.865 178.142L152.71 168.318C152.775 168.104 152.85 167.954 152.937 167.868C153.022 167.783 153.207 167.74 153.486 167.74H155.976C156.32 167.74 156.493 167.88 156.493 168.157C156.493 168.264 156.482 168.35 156.461 168.414L152.031 182.477C151.945 182.754 151.842 182.936 151.724 183.021C151.605 183.107 151.417 183.15 151.159 183.15H149.283C149.045 183.15 148.873 183.102 148.766 183.006C148.657 182.909 148.549 182.733 148.442 182.477L145.209 173.84L141.976 182.477C141.867 182.733 141.754 182.909 141.636 183.006C141.517 183.102 141.339 183.15 141.102 183.15H139.259C139.001 183.151 138.807 183.103 138.677 183.006Z" fill="white"/>
<path id="XMLID_2007_" d="M161.408 182.781C160.051 182.215 158.967 181.337 158.159 180.148C157.35 178.96 156.946 177.478 156.946 175.702C156.946 172.941 157.69 170.844 159.177 169.41C160.665 167.976 162.777 167.258 165.515 167.258C168.231 167.258 170.284 167.954 171.675 169.345C173.066 170.736 173.761 172.748 173.761 175.38C173.761 176.13 173.416 176.504 172.727 176.504H160.86C160.86 177.917 161.355 179.004 162.347 179.763C163.339 180.523 164.718 180.903 166.486 180.903C168.189 180.903 169.72 180.517 171.077 179.747C171.228 179.661 171.347 179.618 171.434 179.618C171.584 179.618 171.703 179.715 171.789 179.907L172.565 181.287C172.629 181.416 172.661 181.533 172.661 181.64C172.661 181.79 172.565 181.928 172.371 182.057C171.487 182.593 170.533 182.989 169.509 183.244C168.485 183.501 167.305 183.63 165.969 183.63C164.287 183.633 162.767 183.348 161.408 182.781ZM170.01 174.129C170.01 172.802 169.638 171.764 168.895 171.014C168.151 170.265 167.035 169.89 165.548 169.89C164.039 169.89 162.88 170.275 162.072 171.046C161.263 171.817 160.859 172.844 160.859 174.128H170.01V174.129Z" fill="white"/>
<path id="XMLID_2011_" d="M177.204 182.861C177.021 182.669 176.929 182.38 176.929 181.995V162.507C176.929 162.1 177.021 161.8 177.204 161.608C177.387 161.415 177.694 161.319 178.126 161.319H179.84C180.27 161.319 180.583 161.415 180.777 161.608C180.972 161.8 181.068 162.1 181.068 162.507V181.995C181.068 182.38 180.977 182.669 180.794 182.861C180.61 183.054 180.292 183.151 179.84 183.151H178.126C177.694 183.151 177.386 183.054 177.204 182.861Z" fill="white"/>
<path id="XMLID_2013_" d="M186.645 181.529C185.039 180.128 184.236 178.121 184.236 175.509C184.236 173.882 184.602 172.449 185.336 171.207C186.068 169.966 187.119 168.997 188.488 168.302C189.856 167.606 191.457 167.258 193.29 167.258C194.648 167.258 195.801 167.386 196.75 167.643C197.698 167.9 198.581 168.318 199.401 168.895C199.596 169.023 199.692 169.163 199.692 169.312C199.692 169.44 199.638 169.591 199.53 169.762L198.657 171.27C198.528 171.484 198.409 171.591 198.302 171.591C198.194 171.591 198.043 171.527 197.849 171.398C197.181 170.993 196.517 170.687 195.86 170.484C195.202 170.28 194.421 170.179 193.515 170.179C191.899 170.179 190.627 170.656 189.7 171.608C188.773 172.56 188.31 173.861 188.31 175.509C188.31 177.243 188.773 178.544 189.7 179.41C190.627 180.277 191.985 180.71 193.775 180.71C194.68 180.71 195.467 180.603 196.136 180.389C196.804 180.175 197.45 179.865 198.076 179.458C198.248 179.351 198.388 179.297 198.496 179.297C198.625 179.297 198.754 179.405 198.884 179.618L199.822 181.192C199.908 181.299 199.951 181.416 199.951 181.544C199.951 181.694 199.843 181.844 199.628 181.994C198.765 182.551 197.839 182.962 196.847 183.23C195.856 183.497 194.692 183.631 193.355 183.631C190.488 183.633 188.251 182.932 186.645 181.529Z" fill="white"/>
<path id="XMLID_2015_" d="M204.785 181.433C203.266 179.967 202.506 177.971 202.506 175.446C202.506 172.921 203.266 170.924 204.785 169.458C206.305 167.992 208.466 167.259 211.268 167.259C214.071 167.259 216.237 167.992 217.767 169.458C219.298 170.924 220.063 172.921 220.063 175.446C220.063 177.972 219.298 179.967 217.767 181.433C216.237 182.899 214.07 183.633 211.268 183.633C208.466 183.633 206.305 182.899 204.785 181.433ZM214.76 179.298C215.558 178.421 215.957 177.137 215.957 175.446C215.957 173.776 215.558 172.508 214.76 171.641C213.963 170.774 212.799 170.341 211.268 170.341C209.76 170.341 208.6 170.774 207.792 171.641C206.984 172.508 206.58 173.776 206.58 175.446C206.58 177.116 206.984 178.395 207.792 179.283C208.6 180.171 209.759 180.615 211.268 180.615C212.799 180.614 213.962 180.176 214.76 179.298Z" fill="white"/>
<path id="XMLID_2018_" d="M223.523 182.861C223.328 182.669 223.231 182.38 223.231 181.995V168.606C223.231 168.286 223.284 168.061 223.393 167.933C223.501 167.804 223.727 167.74 224.071 167.74H225.785C226.022 167.74 226.195 167.788 226.302 167.884C226.41 167.981 226.475 168.147 226.497 168.381L226.593 169.73C227.218 168.939 227.936 168.328 228.744 167.901C229.552 167.473 230.516 167.258 231.638 167.258C232.586 167.258 233.411 167.467 234.112 167.884C234.812 168.302 235.324 168.917 235.647 169.73C236.833 168.083 238.547 167.258 240.789 167.258C242.319 167.258 243.532 167.719 244.427 168.638C245.321 169.559 245.768 170.929 245.768 172.748V181.995C245.768 182.38 245.677 182.669 245.494 182.861C245.31 183.054 244.992 183.151 244.54 183.151H243.117C242.685 183.151 242.373 183.055 242.179 182.861C241.984 182.669 241.888 182.38 241.888 181.995V172.973C241.888 171.989 241.678 171.282 241.257 170.854C240.836 170.426 240.206 170.211 239.365 170.211C238.481 170.211 237.764 170.5 237.214 171.078C236.665 171.655 236.389 172.437 236.389 173.422V181.994C236.389 182.379 236.293 182.669 236.099 182.861C235.904 183.053 235.591 183.15 235.161 183.15H233.835C233.404 183.15 233.092 183.054 232.897 182.861C232.703 182.669 232.606 182.379 232.606 181.994V172.812C232.606 171.913 232.417 171.255 232.041 170.838C231.663 170.421 231.066 170.212 230.246 170.212C229.32 170.212 228.565 170.517 227.983 171.127C227.401 171.737 227.11 172.534 227.11 173.519V181.995C227.11 182.38 227.017 182.669 226.835 182.861C226.652 183.054 226.334 183.151 225.881 183.151H224.458C224.029 183.151 223.717 183.054 223.523 182.861Z" fill="white"/>
<path id="XMLID_2021_" d="M253.238 182.781C251.88 182.215 250.797 181.337 249.989 180.148C249.18 178.96 248.776 177.478 248.776 175.702C248.776 172.941 249.52 170.844 251.007 169.41C252.494 167.976 254.607 167.258 257.345 167.258C260.061 167.258 262.114 167.954 263.505 169.345C264.896 170.736 265.591 172.748 265.591 175.38C265.591 176.13 265.246 176.504 264.556 176.504H252.689C252.689 177.917 253.185 179.004 254.177 179.763C255.168 180.523 256.548 180.903 258.316 180.903C260.019 180.903 261.549 180.517 262.907 179.747C263.057 179.661 263.177 179.618 263.262 179.618C263.413 179.618 263.532 179.715 263.618 179.907L264.394 181.287C264.459 181.416 264.491 181.533 264.491 181.64C264.491 181.79 264.394 181.928 264.2 182.057C263.317 182.593 262.363 182.989 261.338 183.244C260.315 183.501 259.133 183.63 257.798 183.63C256.116 183.633 254.596 183.348 253.238 182.781ZM261.839 174.129C261.839 172.802 261.468 171.764 260.724 171.014C259.98 170.265 258.865 169.89 257.377 169.89C255.869 169.89 254.709 170.275 253.901 171.046C253.093 171.817 252.689 172.844 252.689 174.128H261.839V174.129Z" fill="white"/>
<path id="XMLID_2024_" d="M268.112 181.834V181.16C268.112 180.261 268.748 179.811 270.02 179.811H270.861C272.133 179.811 272.769 180.26 272.769 181.16V181.834C272.769 182.711 272.133 183.15 270.861 183.15H270.02C268.748 183.151 268.112 182.712 268.112 181.834ZM268.808 176.81C268.646 176.628 268.565 176.334 268.565 175.927L268.371 162.507C268.371 162.1 268.463 161.8 268.646 161.608C268.829 161.415 269.136 161.319 269.567 161.319H271.346C271.777 161.319 272.083 161.415 272.267 161.608C272.451 161.8 272.542 162.1 272.542 162.507L272.316 175.927C272.316 176.333 272.235 176.628 272.073 176.81C271.911 176.992 271.615 177.083 271.184 177.083H269.599C269.233 177.083 268.97 176.992 268.808 176.81Z" fill="white"/>
</g>
</g>
<path id="XMLID_1800_" d="M114.225 160.53C113.702 161.985 112.552 162.673 111.689 164.125C110.825 165.578 110.489 169.897 111.444 171.702C112.399 173.505 114.971 175.957 118.54 176.221C119.804 176.221 120.944 175.991 122.004 175.266C122.475 174.944 122.9 174.551 123.248 174.1C123.62 173.62 123.751 173.089 123.961 172.526C123.978 172.481 123.996 172.435 124.032 172.404C124.072 172.37 124.127 172.362 124.18 172.354C124.548 172.295 124.911 172.159 125.192 171.915C125.473 171.67 125.662 171.309 125.647 170.939C125.629 170.461 125.284 170.048 124.873 169.799C124.463 169.551 123.988 169.433 123.53 169.289C122.401 168.935 121.359 168.368 120.253 167.953C116.304 166.47 114.225 164.339 114.225 164.339V160.53Z" fill="#FFA8A7"/>
<path id="XMLID_1799_" d="M293.966 161.837C294.497 163.314 295.664 164.012 296.541 165.487C297.417 166.961 297.758 171.344 296.788 173.175C295.819 175.006 293.209 177.494 289.587 177.761C286.872 177.962 284.61 176.048 284.08 174.225C283.31 171.576 284.642 170.574 287.849 169.37C291.856 167.865 293.967 165.702 293.967 165.702V161.837H293.966Z" fill="#B16668"/>
<path id="XMLID_861_" d="M215.391 149.598C220.138 150.367 221.504 153.151 221.504 153.151H217.621C217.621 153.151 217.13 154.448 218.438 159.309C218.895 161.006 216.356 161.056 216.28 160.417C215.821 161.465 212.485 162.926 209.992 161.283C207.705 159.775 206.681 157.473 207.192 153.151C208.065 148.323 214.559 149.463 215.391 149.598Z" fill="#B16668"/>
</g>
</g>
</g>
</svg>
